<svg width="149" height="54" viewBox="0 0 149 54" fill="none" xmlns="http://www.w3.org/2000/svg">
<g clip-path="url(#clip0_10090_13580)">
<path d="M104.291 7.54961H112.675L122.255 29.6108L128.044 14.0323C128.044 14.0323 130.389 9.53411 123.653 9.53411L123.553 7.54961H137.824V9.53411C137.824 9.53411 133.932 9.36853 131.836 14.1315C129.741 18.8945 120.758 39.4343 120.758 39.4343H117.764L104.291 7.54961Z" fill="#2E338F"/>
<path d="M78.4434 19.0013C78.0439 12.1467 87.1262 12.1467 87.1262 12.1467C87.1262 12.1467 95.5095 11.8487 95.5095 19.1915C95.5095 26.5342 87.1262 25.84 87.1262 25.84C87.1262 25.84 78.8427 25.8557 78.4434 19.0013ZM98.5033 33.9765H82.9343C82.9343 33.9765 78.8705 32.1003 82.3356 28.916C82.3356 28.916 97.0067 30.4042 99.2018 21.8707C99.2018 21.8707 100.599 19.688 99.0024 13.9325L104.292 11.1542H96.5078C96.5078 11.1542 92.4157 6.09396 79.0421 5.79621C65.6683 5.4987 47.7042 11.2537 47.7042 11.2537V7.54929H40.1192V14.1312C40.1192 14.1312 8.18271 27.4277 -0.5 39.434C-0.5 39.434 16.566 23.3592 40.0196 16.8102V34.2742C40.0196 34.2742 39.2213 38.3425 35.1294 38.3425V39.8971L52.8274 39.8639V38.0117C52.8274 38.0117 48.1371 37.5156 48.1037 34.142L48.0039 14.5776C48.0039 14.5776 49.9999 12.742 54.5906 12.7916C59.1816 12.8412 61.0279 16.4135 61.0775 19.8366C61.1277 23.26 61.1277 39.434 61.1277 39.434H68.9121V16.4135C68.9121 16.4135 68.513 11.8988 66.6166 10.9063L79.2417 10.8567C79.2417 10.8567 74.3014 14.0816 74.3511 19.6381C74.3511 19.6381 73.6528 23.5577 80.9882 28.1718C80.9882 28.1718 74.3014 31.3965 74.3511 35.0183C74.4015 38.6402 78.7925 39.7315 81.5869 39.781L95.5095 39.6821C95.5095 39.6821 99.6148 39.4833 99.7509 44.8915C99.8874 50.2993 94.9103 52.8295 94.9103 52.8295C94.9103 52.8295 105.889 49.1582 105.789 40.8232C105.789 40.8232 106.388 35.3655 98.5033 33.9765Z" fill="#2E338F"/>
<path d="M143.11 4.35933H143.612C144.2 4.35933 144.674 4.16489 144.674 3.69346C144.674 3.27666 144.366 2.99943 143.696 2.99943C143.417 2.99943 143.222 3.02687 143.11 3.05526V4.35933ZM143.083 6.91284H142.021V2.36123C142.441 2.30469 143.025 2.22214 143.781 2.22214C144.646 2.22214 145.037 2.36123 145.344 2.58287C145.623 2.77707 145.819 3.11061 145.819 3.5546C145.819 4.1093 145.399 4.4698 144.87 4.63728V4.69239C145.315 4.83148 145.539 5.19174 145.679 5.80226C145.819 6.49605 145.93 6.74584 146.014 6.91284H144.896C144.757 6.74584 144.674 6.35815 144.534 5.80226C144.451 5.33107 144.17 5.10847 143.585 5.10847H143.083V6.91284ZM140.263 4.55354C140.263 6.57955 141.799 8.18972 143.836 8.18972C145.819 8.21692 147.326 6.57955 147.326 4.58169C147.326 2.55591 145.819 0.91711 143.781 0.91711C141.799 0.91711 140.263 2.55591 140.263 4.55354ZM148.499 4.55354C148.499 7.10729 146.432 9.1333 143.808 9.1333C141.184 9.1333 139.09 7.10729 139.09 4.55354C139.09 1.99979 141.184 0.00192451 143.836 0.00192451C146.432 0.00192451 148.499 1.99979 148.499 4.55354Z" fill="#2E338F"/>
<path d="M42.67 53.7681L43.9401 47.8516C43.9728 47.6684 43.9888 47.5066 43.9888 47.366C43.9888 46.9829 43.8017 46.7916 43.4271 46.7916C43.1612 46.7916 42.9551 46.8753 42.8085 47.0423C42.6621 47.2097 42.5505 47.4794 42.4749 47.8516L41.2048 53.7681H38.2012L40.1223 44.8006H43.0201L42.7921 45.8933H42.825C43.1067 45.4617 43.4583 45.1324 43.8789 44.9058C44.2993 44.6794 44.7704 44.5661 45.2911 44.5661C45.6981 44.5661 46.0304 44.6159 46.2882 44.7154C46.5459 44.8157 46.745 44.9665 46.8866 45.169C47.0277 45.3713 47.128 45.629 47.1878 45.9417C47.5026 45.4672 47.8849 45.1191 48.3355 44.8977C48.7859 44.6765 49.2608 44.5661 49.7599 44.5661C50.3678 44.5661 50.8414 44.6858 51.1805 44.9258C51.5196 45.1661 51.6892 45.5829 51.6892 46.1765C51.6892 46.4194 51.6566 46.6945 51.5916 47.0019L50.1427 53.7681H47.1391L48.4089 47.8516C48.4416 47.6684 48.4574 47.5066 48.4574 47.366C48.4574 46.9829 48.2678 46.7916 47.8877 46.7916C47.6274 46.7916 47.4239 46.8753 47.2773 47.0423C47.1309 47.2097 47.0198 47.4794 46.9437 47.8516L45.6738 53.7681H42.67Z" fill="#2E338F"/>
<path d="M56.0077 49.2926C55.796 50.3558 55.69 51.0408 55.69 51.3482C55.69 51.6128 55.7351 51.8001 55.8246 51.9108C55.9141 52.0215 56.0588 52.0766 56.2596 52.0766C56.4934 52.0766 56.6844 51.9998 56.8336 51.846C56.9829 51.6923 57.117 51.4308 57.2368 51.061C57.3563 50.6912 57.5024 50.1022 57.6764 49.2926C57.8988 48.2837 58.0102 47.5878 58.0102 47.2046C58.0102 46.9348 57.9665 46.7487 57.8796 46.6461C57.793 46.544 57.6461 46.4925 57.4403 46.4925C57.2718 46.4925 57.1254 46.5342 57.0004 46.6179C56.8759 46.7014 56.7669 46.8337 56.675 47.0145C56.5826 47.1954 56.4852 47.4584 56.382 47.8034C56.2788 48.1489 56.1541 48.6452 56.0077 49.2926ZM60.6798 49.2926C60.5384 49.9508 60.3647 50.5538 60.1578 51.1013C59.9517 51.6493 59.669 52.1415 59.3108 52.5786C58.9523 53.0155 58.4865 53.3623 57.9135 53.6183C57.3402 53.8745 56.6491 54.0027 55.8395 54.0027C55.2472 54.0027 54.7517 53.9433 54.3524 53.8247C53.9534 53.7061 53.6299 53.5334 53.3827 53.3067C53.1358 53.0799 52.9633 52.8172 52.8658 52.5178C52.7675 52.2184 52.7188 51.8717 52.7188 51.4779C52.7188 50.9436 52.8195 50.21 53.0204 49.2764C53.2052 48.3811 53.4658 47.5866 53.8024 46.893C54.1393 46.1997 54.6351 45.6386 55.2895 45.2096C55.9443 44.7807 56.8012 44.5664 57.8602 44.5664C59.0065 44.5664 59.8132 44.7835 60.2802 45.2177C60.7474 45.6521 60.9811 46.2765 60.9811 47.0913C60.9811 47.5825 60.8806 48.3161 60.6798 49.2926Z" fill="#2E338F"/>
<path d="M62.6403 46.8079L63.0797 44.8009H64.0729L64.6426 42.1625H67.6466L67.0767 44.8009H68.2648L67.8252 46.8079H66.6448L65.725 51.0813C65.7034 51.1893 65.6929 51.2671 65.6929 51.3161C65.6929 51.6238 65.899 51.7772 66.3115 51.7772H66.7751L66.3441 53.7684C65.7742 53.8328 65.2233 53.8652 64.6915 53.8652C64.1761 53.8652 63.7609 53.8314 63.4459 53.7641C63.1315 53.6966 62.8966 53.5699 62.742 53.3838C62.5875 53.1975 62.5098 52.9213 62.5098 52.5543C62.5098 52.2629 62.5477 51.9393 62.624 51.583L63.6414 46.8079H62.6403Z" fill="#2E338F"/>
<path d="M71.7242 49.2926C71.5126 50.3558 71.4065 51.0408 71.4065 51.3482C71.4065 51.6128 71.4514 51.8001 71.5411 51.9108C71.6309 52.0215 71.7756 52.0766 71.9764 52.0766C72.2097 52.0766 72.4009 51.9998 72.5502 51.846C72.6994 51.6923 72.8338 51.4308 72.9533 51.061C73.0728 50.6912 73.2192 50.1022 73.3929 49.2926C73.6154 48.2837 73.7265 47.5878 73.7265 47.2046C73.7265 46.9348 73.683 46.7487 73.5964 46.6461C73.5098 46.544 73.3627 46.4925 73.1568 46.4925C72.9886 46.4925 72.8417 46.5342 72.7172 46.6179C72.5924 46.7014 72.4837 46.8337 72.3916 47.0145C72.2992 47.1954 72.2015 47.4584 72.0986 47.8034C71.9954 48.1489 71.8706 48.6452 71.7242 49.2926ZM76.3958 49.2926C76.2552 49.9508 76.0812 50.5538 75.8746 51.1013C75.6685 51.6493 75.3858 52.1415 75.0273 52.5786C74.6688 53.0155 74.2028 53.3623 73.6298 53.6183C73.057 53.8745 72.3656 54.0027 71.5563 54.0027C70.9643 54.0027 70.4687 53.9433 70.0692 53.8247C69.6699 53.7061 69.3467 53.5334 69.0995 53.3067C68.8521 53.0799 68.6798 52.8172 68.5822 52.5178C68.4843 52.2184 68.4355 51.8717 68.4355 51.4779C68.4355 50.9436 68.5361 50.21 68.7369 49.2764C68.9217 48.3811 69.1823 47.5866 69.519 46.893C69.8561 46.1997 70.3516 45.6386 71.0063 45.2096C71.6611 44.7807 72.5175 44.5664 73.5772 44.5664C74.7235 44.5664 75.5303 44.7835 75.997 45.2177C76.464 45.6521 76.6977 46.2765 76.6977 47.0913C76.6977 47.5825 76.5974 48.3161 76.3958 49.2926Z" fill="#2E338F"/>
<path d="M77.3691 53.7679L79.2879 44.8005H82.1833L81.8826 46.225H81.9232C82.2046 45.6908 82.5554 45.2808 82.9759 44.9947C83.3963 44.7088 83.8306 44.566 84.281 44.566H84.7686L84.167 47.3497C83.9446 47.3067 83.701 47.285 83.4354 47.285C82.8823 47.285 82.4393 47.4091 82.106 47.6574C81.7725 47.9056 81.5435 48.3129 81.4187 48.8795L80.3701 53.7679H77.3691Z" fill="#2E338F"/>
<path d="M86.485 44.1531L86.9652 41.9355H89.9693L89.4807 44.1531H86.485ZM84.4336 53.7681L86.3468 44.8006H89.3507L87.4377 53.7681H84.4336Z" fill="#2E338F"/>
</g>
<defs>
<clipPath id="clip0_10090_13580">
<rect width="149" height="54" fill="white" transform="translate(-0.5)"/>
</clipPath>
</defs>
</svg>
