<svg width="40" height="40" viewBox="0 0 40 40" fill="none" xmlns="http://www.w3.org/2000/svg">
<rect width="40" height="40" rx="20" fill="#F8FFF8"/>
<path d="M17 23H23C23.4142 23 23.75 22.6642 23.75 22.25C23.75 21.8358 23.4142 21.5 23 21.5H17C16.5858 21.5 16.25 21.8358 16.25 22.25C16.25 22.6642 16.5858 23 17 23Z" fill="#585865"/>
<path d="M17 20H23C23.4142 20 23.75 19.6642 23.75 19.25C23.75 18.8358 23.4142 18.5 23 18.5H17C16.5858 18.5 16.25 18.8358 16.25 19.25C16.25 19.6642 16.5858 20 17 20Z" fill="#585865"/>
<path d="M13.25 12.5H17C17.4142 12.5 17.75 12.1642 17.75 11.75C17.75 11.3358 17.4142 11 17 11H13.25C12.6287 11 12.1893 11.4393 12.1893 11.4393C11.75 11.8787 11.75 12.5 11.75 12.5V28.25C11.75 28.8713 12.1893 29.3107 12.1893 29.3107C12.6287 29.75 13.25 29.75 13.25 29.75H26.75C27.3713 29.75 27.8107 29.3107 27.8107 29.3107C28.25 28.8713 28.25 28.25 28.25 28.25V12.5C28.25 11.8787 27.8107 11.4393 27.8107 11.4393C27.3713 11 26.75 11 26.75 11H23C22.5858 11 22.25 11.3358 22.25 11.75C22.25 12.1642 22.5858 12.5 23 12.5H26.75V28.25H13.25V12.5Z" fill="#585865"/>
<path fill-rule="evenodd" clip-rule="evenodd" d="M16.25 15.5C15.8358 15.5 15.5 15.1642 15.5 14.75V14C15.5 14 15.5 12.136 16.818 10.818C16.818 10.818 18.136 9.5 20 9.5C20 9.5 21.864 9.5 23.182 10.818C23.182 10.818 24.5 12.136 24.5 14V14.75C24.5 15.1642 24.1642 15.5 23.75 15.5H16.25ZM22.1213 11.8787C22.1213 11.8787 23 12.7574 23 14H17C17 14 17 12.7574 17.8787 11.8787C17.8787 11.8787 18.7574 11 20 11C20 11 21.2426 11 22.1213 11.8787Z" fill="#585865"/>
</svg>
