<svg width="40" height="40" viewBox="0 0 40 40" fill="none" xmlns="http://www.w3.org/2000/svg">
<rect width="40" height="40" rx="20" fill="#FFF8EF"/>
<path fill-rule="evenodd" clip-rule="evenodd" d="M29.75 24.627L29.75 24.6292C29.75 24.6292 29.7473 25.0331 29.543 25.3817C29.543 25.3817 29.3383 25.7313 28.986 25.9314L20.7333 30.5735C20.7333 30.5735 20.3969 30.7678 20 30.7678C20 30.7678 19.6031 30.7678 19.2594 30.5694L11.0167 25.9329C11.0167 25.9329 10.6617 25.7313 10.4569 25.3817C10.4569 25.3817 10.2522 25.0321 10.25 24.627L10.25 15.3792C10.25 15.3792 10.2522 14.97 10.4569 14.6205C10.4569 14.6205 10.6617 14.2709 11.014 14.0708L19.2667 9.42866C19.2667 9.42866 19.6031 9.23438 20 9.23438C20 9.23438 20.3969 9.23438 20.7406 9.43282L28.9833 14.0693C28.9833 14.0693 29.3383 14.2709 29.543 14.6205C29.543 14.6205 29.7478 14.97 29.75 15.3752L29.75 24.623L29.75 24.627ZM28.25 15.3832L28.25 24.6189C28.25 24.6189 28.2499 24.6216 28.2487 24.6236C28.2487 24.6236 28.2483 24.6244 28.2475 24.6252C28.2469 24.6258 28.2462 24.6265 28.2453 24.627L20 29.265L11.7522 24.6256C11.7522 24.6256 11.7523 24.6254 11.7513 24.6236C11.7513 24.6236 11.75 24.6215 11.75 24.6189L11.75 15.3792C11.75 15.3792 11.7505 15.3799 11.7513 15.3786C11.7513 15.3786 11.7525 15.3764 11.7547 15.3751L20 10.7372L28.2478 15.3766C28.2479 15.3769 28.2483 15.3778 28.2487 15.3786C28.2487 15.3786 28.25 15.3807 28.25 15.3832Z" fill="#585865"/>
<path d="M15.8622 11.7506C15.7513 11.6894 15.6267 11.6573 15.5 11.6573L15.4904 11.6574C15.4231 11.6582 15.3563 11.6681 15.2917 11.6868C15.1007 11.742 14.9393 11.8709 14.8433 12.0451C14.7821 12.156 14.75 12.2806 14.75 12.4073L14.7501 12.4169C14.7509 12.4842 14.7608 12.551 14.7795 12.6156C14.8347 12.8067 14.9636 12.968 15.1378 13.0641L23.8438 17.8658V22.2979C23.8438 22.7122 24.1795 23.0479 24.5938 23.0479C25.008 23.0479 25.3438 22.7122 25.3438 22.2979V17.4229C25.3438 17.1497 25.1952 16.8982 24.956 16.7662L15.8622 11.7506Z" fill="#585865"/>
<path d="M20.0808 19.1404L11.4682 14.3397C11.3566 14.2774 11.2309 14.2448 11.1031 14.2448L11.0968 14.2448C11.0296 14.2454 10.9627 14.255 10.8981 14.2733C10.7067 14.3277 10.5448 14.4559 10.448 14.6296C10.3858 14.7413 10.3531 14.867 10.3531 14.9948L10.3531 15.001C10.3537 15.0683 10.3633 15.1351 10.3817 15.1998C10.436 15.3911 10.5642 15.553 10.7379 15.6499L19.7192 20.6561C19.9481 20.7837 20.2269 20.7826 20.4548 20.6532L29.2673 15.6469C29.4403 15.5486 29.5671 15.3857 29.6199 15.1939C29.6378 15.1291 29.6468 15.0621 29.6468 14.9948L29.6466 14.9764C29.6436 14.8528 29.61 14.7318 29.549 14.6243C29.4157 14.3897 29.1667 14.2448 28.8968 14.2448C28.887 14.2448 28.8771 14.245 28.8673 14.2454C28.7475 14.2501 28.6306 14.2835 28.5264 14.3427L20.0808 19.1404Z" fill="#585865"/>
<path d="M19.25 30.0072L19.25 30.0136C19.25 30.0572 19.2538 30.1008 19.2614 30.1438C19.3242 30.4999 19.6321 30.7605 19.9937 30.7635C20.0057 30.7636 20.0177 30.7635 20.0297 30.763C20.216 30.7556 20.3929 30.6791 20.5258 30.5483C20.6677 30.4089 20.7483 30.2188 20.75 30.0199L20.8343 20.0075L20.8344 20.0011C20.8344 19.9912 20.8342 19.9813 20.8338 19.9714C20.8264 19.785 20.7499 19.6082 20.6192 19.4752C20.4797 19.3334 20.2896 19.2528 20.0907 19.2511L20.0844 19.2511C20.0745 19.2511 20.0646 19.2513 20.0547 19.2517C19.8684 19.259 19.6915 19.3356 19.5585 19.4663C19.4167 19.6058 19.3361 19.7958 19.3344 19.9947L19.25 30.0072Z" fill="#585865"/>
</svg>
