<svg width="40" height="40" viewBox="0 0 40 40" fill="none" xmlns="http://www.w3.org/2000/svg">
<rect width="40" height="40" rx="20" fill="#F8FFF8"/>
<path fill-rule="evenodd" clip-rule="evenodd" d="M17 11.75C17 11.75 20.2676 11.75 22.6111 12.8046C22.6111 12.8046 23.7854 13.333 24.4571 14.0476C24.4571 14.0476 25.25 14.8912 25.25 15.875C25.25 15.875 25.25 16.8588 24.4571 17.7024C24.4571 17.7024 23.7854 18.417 22.6111 18.9454C22.6111 18.9454 20.2676 20 17 20C17 20 13.7324 20 11.3889 18.9454C11.3889 18.9454 10.2146 18.417 9.54289 17.7024C9.54289 17.7024 8.75 16.8588 8.75 15.875C8.75 15.875 8.75 14.8912 9.54289 14.0476C9.54289 14.0476 10.2146 13.333 11.3889 12.8046C11.3889 12.8046 13.7324 11.75 17 11.75ZM17 13.25C17 13.25 14.0544 13.25 12.0045 14.1725C12.0045 14.1725 11.1028 14.5782 10.6359 15.075C10.6359 15.075 10.25 15.4855 10.25 15.875C10.25 15.875 10.25 16.2645 10.6359 16.675C10.6359 16.675 11.1028 17.1718 12.0045 17.5775C12.0045 17.5775 14.0544 18.5 17 18.5C17 18.5 19.9456 18.5 21.9955 17.5775C21.9955 17.5775 22.8972 17.1718 23.3641 16.675C23.3641 16.675 23.75 16.2645 23.75 15.875C23.75 15.875 23.75 15.4855 23.3641 15.075C23.3641 15.075 22.8972 14.5782 21.9955 14.1725C21.9955 14.1725 19.9456 13.25 17 13.25Z" fill="#1C1C1C"/>
<path d="M25.25 19.625V15.875C25.25 15.4608 24.9142 15.125 24.5 15.125C24.0858 15.125 23.75 15.4608 23.75 15.875V19.625C23.75 20.0152 23.3642 20.4259 23.3642 20.4259C22.8976 20.9226 21.9962 21.3281 21.9962 21.3281C19.9472 22.25 17 22.25 17 22.25C14.0528 22.25 12.0038 21.3281 12.0038 21.3281C11.1024 20.9226 10.6358 20.4259 10.6358 20.4259C10.25 20.0152 10.25 19.625 10.25 19.625V15.875C10.25 15.4608 9.91421 15.125 9.5 15.125C9.08579 15.125 8.75 15.4608 8.75 15.875V19.625C8.75 20.6093 9.54253 21.4529 9.54253 21.4529C10.214 22.1677 11.3884 22.6961 11.3884 22.6961C13.7309 23.75 17 23.75 17 23.75C20.2691 23.75 22.6116 22.6961 22.6116 22.6961C23.786 22.1677 24.4575 21.4529 24.4575 21.4529C25.25 20.6093 25.25 19.625 25.25 19.625Z" fill="#1C1C1C"/>
<path d="M13.25 18.9688V22.7188C13.25 23.133 13.5858 23.4688 14 23.4688C14.4142 23.4688 14.75 23.133 14.75 22.7188V18.9688C14.75 18.5545 14.4142 18.2188 14 18.2188C13.5858 18.2188 13.25 18.5545 13.25 18.9688Z" fill="#1C1C1C"/>
<path d="M24.5717 16.3191C27.3145 16.5749 29.1417 17.5694 29.1417 17.5694C31.25 18.7168 31.25 20.375 31.25 20.375C31.25 21.3593 30.4575 22.2029 30.4575 22.2029C29.786 22.9177 28.6116 23.4461 28.6116 23.4461C26.2691 24.5 23 24.5 23 24.5C20.1427 24.5 17.9114 23.6658 17.9114 23.6658C17.9104 23.6655 17.9094 23.6651 17.9094 23.6651C17.723 23.5954 17.5718 23.4544 17.4893 23.2734C17.4485 23.1838 17.4257 23.087 17.4223 22.9886C17.422 22.9799 17.4219 22.9712 17.4219 22.9625C17.4219 22.8728 17.438 22.7838 17.4694 22.6997C17.5772 22.4116 17.85 22.2185 18.1576 22.2127L18.1719 22.2125C18.2616 22.2125 18.3506 22.2286 18.4347 22.2601C20.4126 23 23 23 23 23C25.9472 23 27.9962 22.0782 27.9962 22.0782C28.8976 21.6726 29.3642 21.1759 29.3642 21.1759C29.75 20.7652 29.75 20.375 29.75 20.375C29.75 19.6082 28.4247 18.8869 28.4247 18.8869C26.8676 18.0394 24.4304 17.8124 24.4304 17.8124C24.0448 17.7765 23.75 17.4529 23.75 17.0656C23.75 17.0431 23.751 17.0207 23.753 16.9983L23.7532 16.9961C23.7695 16.822 23.846 16.659 23.9697 16.5353C23.9861 16.5189 24.0033 16.5032 24.0211 16.4884C24.1557 16.3768 24.3251 16.3156 24.5 16.3156C24.5225 16.3156 24.545 16.3167 24.5674 16.3187L24.5696 16.3189L24.5717 16.3191Z" fill="#1C1C1C"/>
<path d="M31.25 24.125V20.375C31.25 19.9608 30.9142 19.625 30.5 19.625C30.0858 19.625 29.75 19.9608 29.75 20.375V24.125C29.75 24.5152 29.3642 24.9259 29.3642 24.9259C28.8976 25.4226 27.9962 25.8281 27.9962 25.8281C25.9472 26.75 23 26.75 23 26.75C20.0528 26.75 18.0038 25.8281 18.0038 25.8281C17.1024 25.4226 16.6358 24.9259 16.6358 24.9259C16.25 24.5152 16.25 24.125 16.25 24.125L16.25 22.9344C16.25 22.5202 15.9142 22.1844 15.5 22.1844C15.0858 22.1844 14.75 22.5202 14.75 22.9344L14.75 24.125C14.75 25.1093 15.5425 25.9529 15.5425 25.9529C16.214 26.6677 17.3884 27.1961 17.3884 27.1961C19.7309 28.25 23 28.25 23 28.25C26.2691 28.25 28.6116 27.1961 28.6116 27.1961C29.786 26.6677 30.4575 25.9529 30.4575 25.9529C31.25 25.1093 31.25 24.125 31.25 24.125Z" fill="#1C1C1C"/>
<path d="M25.25 23.4688V27.2188C25.25 27.633 25.5858 27.9688 26 27.9688C26.4142 27.9688 26.75 27.633 26.75 27.2188V23.4688C26.75 23.0545 26.4142 22.7188 26 22.7188C25.5858 22.7188 25.25 23.0545 25.25 23.4688Z" fill="#1C1C1C"/>
<path d="M19.25 18.9688V27.2188C19.25 27.633 19.5858 27.9688 20 27.9688C20.4142 27.9688 20.75 27.633 20.75 27.2188V18.9688C20.75 18.5545 20.4142 18.2188 20 18.2188C19.5858 18.2188 19.25 18.5545 19.25 18.9688Z" fill="#1C1C1C"/>
</svg>
