<svg width="32" height="33" viewBox="0 0 32 33" fill="none" xmlns="http://www.w3.org/2000/svg">
<path d="M31 26.4992C31 26.7644 30.8946 27.0187 30.7071 27.2063C30.5196 27.3938 30.2652 27.4992 30 27.4992H2C1.73478 27.4992 1.48043 27.3938 1.29289 27.2063C1.10536 27.0187 1 26.7644 1 26.4992C1 26.2339 1.10536 25.9796 1.29289 25.7921C1.48043 25.6045 1.73478 25.4992 2 25.4992H30C30.2652 25.4992 30.5196 25.6045 30.7071 25.7921C30.8946 25.9796 31 26.2339 31 26.4992ZM2.0375 12.7742C1.97791 12.5646 1.98839 12.3413 2.06736 12.1382C2.14634 11.9351 2.28947 11.7634 2.475 11.6492L15.475 3.64917C15.6323 3.55042 15.8143 3.49805 16 3.49805C16.1857 3.49805 16.3677 3.55042 16.525 3.64917L29.525 11.6492C29.7097 11.7636 29.8521 11.9352 29.9306 12.1378C30.0092 12.3404 30.0196 12.5631 29.9602 12.7722C29.9009 12.9812 29.7751 13.1653 29.6018 13.2964C29.4286 13.4276 29.2173 13.4988 29 13.4992H26V21.4992H28C28.2652 21.4992 28.5196 21.6045 28.7071 21.7921C28.8946 21.9796 29 22.2339 29 22.4992C29 22.7644 28.8946 23.0187 28.7071 23.2063C28.5196 23.3938 28.2652 23.4992 28 23.4992H4C3.73478 23.4992 3.48043 23.3938 3.29289 23.2063C3.10536 23.0187 3 22.7644 3 22.4992C3 22.2339 3.10536 21.9796 3.29289 21.7921C3.48043 21.6045 3.73478 21.4992 4 21.4992H6V13.4992H3C2.78256 13.4994 2.57097 13.4287 2.39729 13.2979C2.2236 13.1671 2.0973 12.9832 2.0375 12.7742ZM18 20.4992C18 20.7644 18.1054 21.0187 18.2929 21.2063C18.4804 21.3938 18.7348 21.4992 19 21.4992C19.2652 21.4992 19.5196 21.3938 19.7071 21.2063C19.8946 21.0187 20 20.7644 20 20.4992V14.4992C20 14.2339 19.8946 13.9796 19.7071 13.7921C19.5196 13.6045 19.2652 13.4992 19 13.4992C18.7348 13.4992 18.4804 13.6045 18.2929 13.7921C18.1054 13.9796 18 14.2339 18 14.4992V20.4992ZM12 20.4992C12 20.7644 12.1054 21.0187 12.2929 21.2063C12.4804 21.3938 12.7348 21.4992 13 21.4992C13.2652 21.4992 13.5196 21.3938 13.7071 21.2063C13.8946 21.0187 14 20.7644 14 20.4992V14.4992C14 14.2339 13.8946 13.9796 13.7071 13.7921C13.5196 13.6045 13.2652 13.4992 13 13.4992C12.7348 13.4992 12.4804 13.6045 12.2929 13.7921C12.1054 13.9796 12 14.2339 12 14.4992V20.4992Z" fill="#552F02"/>
</svg>
