<svg width="40" height="40" viewBox="0 0 40 40" fill="none" xmlns="http://www.w3.org/2000/svg">
<rect width="40" height="40" rx="20" fill="#F8FFF8"/>
<path d="M16.3289 15.2726C17.562 14.8342 18.9918 15.1085 19.9788 16.0954C21.0997 17.2163 21.3014 18.9084 20.5838 20.2348L31.2925 30.9447L29.8783 32.3589L19.1693 21.6497C17.8428 22.3679 16.1502 22.1664 15.029 21.0452C14.0418 20.0579 13.7676 18.6276 14.2065 17.3943L16.4433 19.631C17.029 20.2168 17.9788 20.2168 18.5646 19.631C19.1504 19.0452 19.1504 18.0954 18.5646 17.5097L16.3289 15.2726ZM26.6963 17.1561L29.8783 15.3883L31.2925 16.8025L29.5247 19.9845L27.757 20.3381L25.6356 22.4594L24.2214 21.0452L26.3427 18.9239L26.6963 17.1561ZM19.9788 25.2878L21.393 26.7021L16.0897 32.0054C15.6992 32.3959 15.066 32.3959 14.6755 32.0054C14.3129 31.6427 14.287 31.0709 14.5978 30.6784L14.6755 30.5912L19.9788 25.2878Z" fill="#585865"/>
</svg>
