<svg width="243" height="54" viewBox="0 0 243 54" fill="none" xmlns="http://www.w3.org/2000/svg">
<g clip-path="url(#clip0_10090_13592)">
<path fill-rule="evenodd" clip-rule="evenodd" d="M104.004 26.098C105.466 25.5344 106.721 24.5393 107.6 23.246C108.479 21.9526 108.94 20.4227 108.922 18.8609C108.922 12.3475 104.283 9.11865 97.912 9.11865H81.2012V44.536H99.3651C104.954 44.536 110.431 40.6391 110.431 34.6824C110.431 27.6011 104.004 26.1648 104.004 26.098ZM89.9199 16.4671H96.403C96.8182 16.4415 97.2343 16.4976 97.6276 16.6324C98.0209 16.7671 98.3837 16.9778 98.6952 17.2524C99.0066 17.527 99.2607 17.8601 99.4428 18.2325C99.6249 18.605 99.7315 19.0096 99.7564 19.4232C99.7564 19.5494 99.7564 19.6774 99.7564 19.8073C99.7387 20.678 99.3764 21.5065 98.7483 22.1123C98.1202 22.7181 97.2773 23.0522 96.403 23.0417H89.864L89.9199 16.4671ZM96.4589 37.1207H89.9758V30.162H96.2912C99.4769 30.162 100.986 31.5537 100.986 33.6135C100.986 36.1855 99.0857 37.1207 96.4589 37.1207Z" fill="#ED0007"/>
<path fill-rule="evenodd" clip-rule="evenodd" d="M129.656 8.22791C119.372 8.22791 113.336 16.4114 113.336 26.7661C113.336 37.1207 119.372 45.3042 129.656 45.3042C139.939 45.3042 145.975 37.1764 145.975 26.7661C145.975 16.3557 139.995 8.22791 129.656 8.22791ZM129.656 36.8423C124.626 36.8423 122.111 32.3331 122.111 26.7661C122.111 21.199 124.626 16.7454 129.656 16.7454C134.686 16.7454 137.256 21.2547 137.256 26.7661C137.256 32.3887 134.686 36.8423 129.656 36.8423Z" fill="#ED0007"/>
<path fill-rule="evenodd" clip-rule="evenodd" d="M164.923 23.0362L163.693 22.7578C160.675 22.1454 158.272 21.3661 158.272 19.1949C158.272 16.8568 160.563 15.9104 162.575 15.9104C163.948 15.9307 165.302 16.2329 166.552 16.7981C167.802 17.3632 168.922 18.1792 169.841 19.1949L175.374 13.7393C172.859 10.9001 168.779 8.17224 162.408 8.17224C154.918 8.17224 149.218 12.3475 149.218 19.3063C149.218 25.6527 153.801 28.7702 159.39 29.9392L160.619 30.2176C165.258 31.164 166.99 31.8877 166.99 34.1145C166.99 36.23 165.09 37.6217 162.184 37.6217C158.719 37.6217 155.589 36.1186 153.186 33.0568L147.541 38.6238C150.671 42.3537 154.639 45.2485 162.296 45.2485C168.947 45.2485 176.044 41.463 176.044 33.7248C176.156 25.6527 170.008 24.0939 164.923 23.0362Z" fill="#ED0007"/>
<path fill-rule="evenodd" clip-rule="evenodd" d="M195.943 36.8423C192.031 36.8423 187.951 33.6135 187.951 26.5434C187.951 20.2526 191.751 16.7454 195.719 16.7454C198.849 16.7454 200.694 18.1928 202.147 20.698L209.3 15.966C205.724 10.566 201.476 8.28357 195.608 8.28357C184.877 8.28357 179.064 16.5784 179.064 26.599C179.064 37.1207 185.492 45.3599 195.496 45.3599C202.538 45.3599 205.891 42.9104 209.524 37.6774L202.314 32.8452C200.861 35.1722 199.296 36.8423 195.943 36.8423Z" fill="#ED0007"/>
<path fill-rule="evenodd" clip-rule="evenodd" d="M233.163 9.11865V22.1455H222.376V9.11865H213.043V44.5248H222.376V30.5516H233.163V44.5248H242.497V9.11865H233.163Z" fill="#ED0007"/>
<path d="M27.4347 0.0999756C22.1067 0.0999756 16.8984 1.6737 12.4684 4.62215C8.03838 7.5706 4.5856 11.7613 2.54668 16.6644C0.507766 21.5675 -0.0257077 26.9627 1.01372 32.1678C2.05315 37.3729 4.6188 42.1541 8.38623 45.9068C12.1537 49.6594 16.9537 52.215 22.1792 53.2504C27.4048 54.2857 32.8212 53.7543 37.7436 51.7234C42.666 49.6925 46.8732 46.2532 49.8333 41.8406C52.7933 37.4279 54.3733 32.24 54.3733 26.933C54.3733 19.8164 51.5351 12.9913 46.4831 7.95918C41.4312 2.92701 34.5792 0.0999756 27.4347 0.0999756ZM27.4347 51.2608C22.6042 51.2608 17.8821 49.834 13.8657 47.1608C9.84924 44.4876 6.71881 40.6882 4.87025 36.2428C3.02169 31.7975 2.53802 26.906 3.48041 22.1868C4.4228 17.4677 6.74892 13.1329 10.1646 9.73059C13.5803 6.32828 17.9322 4.01128 22.6699 3.07258C27.4076 2.13389 32.3183 2.61566 36.7812 4.45698C41.244 6.29829 45.0584 9.41645 47.7421 13.4171C50.4258 17.4178 51.8582 22.1214 51.8582 26.933C51.8568 33.3847 49.2831 39.5717 44.7031 44.1337C40.1231 48.6957 33.9118 51.2593 27.4347 51.2608Z" fill="black"/>
<path d="M38.5572 10.1763H36.7129V19.3618H18.2136V10.1763H16.3133C13.5301 12.0052 11.2459 14.4934 9.66552 17.4179C8.08509 20.3423 7.25781 23.6117 7.25781 26.933C7.25781 30.2542 8.08509 33.5236 9.66552 36.4481C11.2459 39.3725 13.5301 41.8607 16.3133 43.6897H18.2136V34.5152H36.7129V43.7008H38.5572C41.3416 41.8728 43.627 39.3849 45.2083 36.4603C46.7896 33.5357 47.6173 30.2659 47.6173 26.9441C47.6173 23.6223 46.7896 20.3525 45.2083 17.4279C43.627 14.5033 41.3416 12.0154 38.5572 10.1874V10.1763ZM15.6427 40.0822C13.9093 38.5482 12.4964 36.689 11.4844 34.611C10.4725 32.5329 9.88136 30.2767 9.74487 27.9711C9.60838 25.6655 9.92916 23.3556 10.6889 21.1735C11.4487 18.9914 12.6325 16.9797 14.1728 15.2534C14.6345 14.7397 15.1252 14.2527 15.6427 13.7948V40.0822ZM36.7129 31.9544H18.2136V21.867H36.7129V31.9544ZM39.2279 40.0266V34.4596V19.3618V13.7948C40.957 15.3414 42.3632 17.2121 43.3662 19.3002C44.3691 21.3883 44.9492 23.6527 45.0733 25.9642C45.1973 28.2757 44.8629 30.5888 44.0891 32.7715C43.3153 34.9542 42.1174 36.9636 40.5636 38.6849C40.141 39.1504 39.6952 39.5945 39.2279 40.0154V40.0266Z" fill="black"/>
</g>
<defs>
<clipPath id="clip0_10090_13592">
<rect width="242" height="54" fill="white" transform="translate(0.5)"/>
</clipPath>
</defs>
</svg>
