<svg width="120" height="90" viewBox="0 0 120 90" fill="none" xmlns="http://www.w3.org/2000/svg">
<path d="M36.4426 35.0919L36.7731 34.3555L37.2008 35.0322C37.5502 35.5728 38.0423 36.0007 38.62 36.2662L39.349 36.5946L38.688 37.0424C38.1553 37.3975 37.7335 37.9018 37.473 38.4954L37.1522 39.2318L36.7147 38.5551C36.367 38.013 35.8743 37.5847 35.2955 37.3211L34.5762 36.9927L35.2372 36.5449C35.7697 36.1923 36.1889 35.6869 36.4426 35.0919Z" fill="#2BAF29"/>
<path d="M1.08872 29.5783L1.27341 29.1504L1.52616 29.5385C1.72636 29.8557 2.01389 30.105 2.35243 30.255L2.77041 30.4541L2.38159 30.7128C2.07615 30.9185 1.83357 31.2083 1.68169 31.5487L1.497 31.9866L1.24425 31.5886C1.04405 31.2714 0.756547 31.022 0.418013 30.872L0 30.673L0.379122 30.4242C0.687119 30.2144 0.932633 29.9217 1.08872 29.5783Z" fill="#2BAF29"/>
<path d="M76.2645 69.9279L76.4492 69.5L76.7019 69.8981C76.91 70.208 77.1953 70.4554 77.5282 70.6146L77.9462 70.8037L77.5671 71.0624C77.2572 71.2674 77.0137 71.5617 76.8672 71.9083L76.6728 72.3362L76.42 71.9481C76.2205 71.6317 75.9373 71.3798 75.6035 71.2216L75.1758 71.0326L75.5646 70.7738C75.8744 70.5689 76.118 70.2745 76.2645 69.9279Z" fill="#2BAF29"/>
<path d="M64.1385 83.7189L64.3232 83.291L64.5759 83.6891C64.784 83.9991 65.0693 84.2464 65.4022 84.4056L65.8202 84.5947L65.4411 84.8534C65.1313 85.0584 64.8877 85.3527 64.7412 85.6993L64.5468 86.1272L64.2941 85.7391C64.0945 85.4228 63.8114 85.1709 63.4775 85.0127L63.0498 84.8236L63.4386 84.5648C63.7485 84.3599 63.992 84.0655 64.1385 83.7189Z" fill="#2BAF29"/>
<path d="M116.79 65.2872L117.111 64.5508L117.548 65.2275C117.896 65.77 118.388 66.1984 118.968 66.4615L119.687 66.7899L119.026 67.2378C118.496 67.5929 118.077 68.0975 117.821 68.6907L117.49 69.4271L117.062 68.7504C116.71 68.2123 116.219 67.7851 115.643 67.5164L114.914 67.188L115.575 66.7402C116.108 66.3851 116.53 65.8808 116.79 65.2872Z" fill="#2BAF29"/>
<path d="M97.4689 48.6271L97.7896 47.8906L98.2271 48.5673C98.5744 49.1098 99.0672 49.5383 99.6463 49.8014L100.366 50.1298L99.7046 50.5776C99.1744 50.9328 98.7558 51.4374 98.4993 52.0305L98.1688 52.767L97.741 52.0902C97.3889 51.5522 96.8975 51.1249 96.3218 50.8562L95.5928 50.5278L96.2538 50.08C96.7865 49.725 97.2083 49.2206 97.4689 48.6271Z" fill="#2BAF29"/>
<path d="M105.358 23.3377L105.902 22.0938L106.631 23.2382C107.217 24.1481 108.043 24.8693 109.013 25.3181L110.228 25.8654L109.11 26.6118C108.222 27.2175 107.518 28.0656 107.078 29.0599L106.534 30.3039L105.805 29.1595C105.219 28.2495 104.393 27.5283 103.423 27.0796L102.208 26.5223L103.326 25.7759C104.215 25.1762 104.919 24.3308 105.358 23.3377Z" fill="#2BAF29"/>
<path d="M22.9064 14.9549L23.4507 13.7109L24.1798 14.8454C24.7627 15.7579 25.5893 16.4798 26.5614 16.9253L27.7765 17.4826L26.6683 18.229C25.7744 18.8228 25.0685 19.6699 24.6367 20.6672L24.0923 21.9111L23.3632 20.7766C22.779 19.8616 21.9485 19.1392 20.972 18.6967L19.7666 18.1394L20.8747 17.3931C21.7661 16.7963 22.4712 15.95 22.9064 14.9549Z" fill="#2BAF29"/>
<path d="M102.985 14.1346C102.985 15.9462 102.527 17.6538 101.729 19.1365L101.723 19.1423L99.2464 22.1712L99.2351 22.1827L50.7453 81.6L48.4833 84.3692C46.7133 85.9039 44.4175 86.8269 41.9124 86.8269C39.9841 86.8269 38.1802 86.2788 36.6477 85.3269L36.6364 85.3206L33.2095 81.8244L33.2039 81.8123L6.64867 54.7212L4.39238 52.4192C3.18224 50.7173 2.46973 48.634 2.46973 46.3731C2.46973 40.6731 6.99361 36.0577 12.575 36.0577C14.786 36.0577 16.8274 36.7788 18.4899 38.0077L20.7745 40.3385L41.1094 61.0789L83.9902 8.94808L86.2747 6.17308L86.2804 6.16731C88.0447 4.66154 90.3236 3.75 92.8061 3.75C98.427 3.75 102.985 8.4 102.985 14.1346Z" fill="#18C414"/>
</svg>
