<svg width="24" height="25" viewBox="0 0 24 25" fill="none" xmlns="http://www.w3.org/2000/svg">
<path d="M8.39316 12.3328C8.25362 12.1994 8.06802 12.125 7.875 12.125C7.87484 12.125 7.85799 12.1252 7.85799 12.1252C7.65913 12.1297 7.4702 12.213 7.33278 12.3568C7.19942 12.4964 7.125 12.682 7.125 12.875L7.12519 12.892C7.1297 13.0909 7.21303 13.2798 7.35684 13.4172L10.1037 16.0422C10.3934 16.3191 10.8496 16.3193 11.1396 16.0427L16.6425 10.7928C16.7864 10.6555 16.8701 10.4665 16.8748 10.2676C16.8751 10.2556 16.8751 10.2436 16.8748 10.2316C16.8702 10.0452 16.7964 9.86721 16.6677 9.7323C16.5261 9.58394 16.33 9.5 16.125 9.5L16.1038 9.5003C15.9184 9.50553 15.7415 9.5793 15.6073 9.70734L10.6223 14.463L8.39316 12.3328Z" fill="#2BAF29"/>
<path fill-rule="evenodd" clip-rule="evenodd" d="M12 2.75C12 2.75 13.9831 2.75 15.7954 3.51651C15.7954 3.51651 17.5452 4.25663 18.8943 5.60571C18.8943 5.60571 20.2434 6.95478 20.9835 8.70463C20.9835 8.70463 21.75 10.5169 21.75 12.5C21.75 12.5 21.75 14.4831 20.9835 16.2954C20.9835 16.2954 20.2434 18.0452 18.8943 19.3943C18.8943 19.3943 17.5452 20.7434 15.7954 21.4835C15.7954 21.4835 13.9831 22.25 12 22.25C12 22.25 10.0169 22.25 8.20463 21.4835C8.20463 21.4835 6.45478 20.7434 5.10571 19.3943C5.10571 19.3943 3.75663 18.0452 3.01651 16.2954C3.01651 16.2954 2.25 14.4831 2.25 12.5C2.25 12.5 2.25 10.5169 3.01651 8.70463C3.01651 8.70463 3.75663 6.95478 5.10571 5.60571C5.10571 5.60571 6.45478 4.25663 8.20463 3.51651C8.20463 3.51651 10.0169 2.75 12 2.75ZM12 4.25C12 4.25 10.321 4.25 8.78896 4.89802C8.78896 4.89802 7.30857 5.52417 6.16637 6.66637C6.16637 6.66637 5.02417 7.80857 4.39802 9.28896C4.39802 9.28896 3.75 10.821 3.75 12.5C3.75 12.5 3.75 14.179 4.39802 15.711C4.39802 15.711 5.02417 17.1914 6.16637 18.3336C6.16637 18.3336 7.30857 19.4758 8.78896 20.102C8.78896 20.102 10.321 20.75 12 20.75C12 20.75 13.679 20.75 15.211 20.102C15.211 20.102 16.6914 19.4758 17.8336 18.3336C17.8336 18.3336 18.9758 17.1914 19.602 15.711C19.602 15.711 20.25 14.1789 20.25 12.5C20.25 12.5 20.25 10.8211 19.602 9.28896C19.602 9.28896 18.9758 7.80857 17.8336 6.66637C17.8336 6.66637 16.6914 5.52417 15.211 4.89802C15.211 4.89802 13.679 4.25 12 4.25Z" fill="#2BAF29"/>
</svg>
