<svg width="40" height="40" viewBox="0 0 40 40" fill="none" xmlns="http://www.w3.org/2000/svg">
<rect width="40" height="40" rx="20" fill="#FFF8EF"/>
<path d="M23.4068 16.2174C23.5474 16.3581 23.7386 16.4375 23.9375 16.4375C24.1364 16.4375 24.3272 16.3585 24.4678 16.2178C24.6085 16.0772 24.6875 15.8864 24.6875 15.6875C24.6875 15.4886 24.6085 15.2978 24.4678 15.1572L20.5303 11.2197C20.3897 11.079 20.1989 11 20 11C19.8011 11 19.6103 11.079 19.4697 11.2197L15.5325 15.1569C15.3918 15.2975 15.3125 15.4886 15.3125 15.6875C15.3125 15.6995 15.3128 15.7115 15.3134 15.7235C15.3223 15.9098 15.4003 16.086 15.5322 16.2178C15.6728 16.3585 15.8636 16.4375 16.0625 16.4375C16.2614 16.4375 16.4522 16.3585 16.5928 16.2178L20 12.8107L23.4068 16.2174Z" fill="#1C1C1C"/>
<path d="M20.75 22.25V11.75C20.75 11.3358 20.4142 11 20 11C19.5858 11 19.25 11.3358 19.25 11.75V22.25C19.25 22.6642 19.5858 23 20 23C20.4142 23 20.75 22.6642 20.75 22.25Z" fill="#1C1C1C"/>
<path d="M12.5 27.5V22.25C12.5 21.8358 12.1642 21.5 11.75 21.5C11.3358 21.5 11 21.8358 11 22.25V27.5C11 28.1213 11.4393 28.5607 11.4393 28.5607C11.8787 29 12.5 29 12.5 29H27.5C28.1213 29 28.5607 28.5607 28.5607 28.5607C29 28.1213 29 27.5 29 27.5V22.25C29 21.8358 28.6642 21.5 28.25 21.5C27.8358 21.5 27.5 21.8358 27.5 22.25V27.5H12.5Z" fill="#1C1C1C"/>
</svg>
