<svg width="160" height="161" viewBox="0 0 160 161" fill="none" xmlns="http://www.w3.org/2000/svg">
<rect y="0.5" width="160" height="160" rx="80" fill="#FFE8CD"/>
<path d="M49.8689 34.7307H117.529C117.867 34.7262 118.203 34.7935 118.514 34.928C118.826 35.0626 119.107 35.2616 119.338 35.5124C119.57 35.7632 119.748 36.0603 119.861 36.3849C119.974 36.7094 120.02 37.0543 119.994 37.3977L114.476 127.828C114.422 128.547 114.107 129.219 113.592 129.713C113.076 130.208 112.398 130.488 111.69 130.499H44.0255C43.6878 130.5 43.3535 130.43 43.0434 130.294C42.7333 130.158 42.454 129.959 42.2229 129.708C41.9917 129.458 41.8135 129.162 41.6995 128.838C41.5855 128.515 41.5379 128.171 41.5599 127.828L47.0746 37.3977C47.1298 36.6788 47.447 36.0069 47.9639 35.5135C48.4808 35.0202 49.1602 34.741 49.8689 34.7307Z" fill="#804702"/>
<path opacity="0.4" d="M49.8689 34.7307H117.529C117.867 34.7262 118.203 34.7935 118.514 34.928C118.826 35.0626 119.107 35.2616 119.338 35.5124C119.57 35.7632 119.748 36.0603 119.861 36.3849C119.974 36.7094 120.02 37.0543 119.994 37.3977L114.476 127.828C114.422 128.547 114.107 129.219 113.592 129.713C113.076 130.208 112.398 130.488 111.69 130.499H44.0255C43.6878 130.5 43.3535 130.43 43.0434 130.294C42.7333 130.158 42.454 129.959 42.2229 129.708C41.9917 129.458 41.8135 129.162 41.6995 128.838C41.5855 128.515 41.5379 128.171 41.5599 127.828L47.0746 37.3977C47.1298 36.6788 47.447 36.0069 47.9639 35.5135C48.4808 35.0202 49.1602 34.741 49.8689 34.7307Z" fill="black"/>
<path d="M48.3143 34.7307H115.974C116.313 34.7262 116.648 34.7935 116.96 34.928C117.271 35.0626 117.552 35.2616 117.784 35.5124C118.016 35.7632 118.194 36.0603 118.307 36.3849C118.42 36.7094 118.465 37.0543 118.44 37.3977L112.921 127.828C112.868 128.548 112.552 129.22 112.036 129.715C111.519 130.209 110.84 130.489 110.131 130.499H42.4708C42.1331 130.5 41.7988 130.43 41.4887 130.294C41.1786 130.158 40.8993 129.959 40.6682 129.708C40.437 129.458 40.2589 129.162 40.1448 128.838C40.0308 128.515 39.9833 128.171 40.0052 127.828L45.5199 37.3977C45.5742 36.6785 45.8911 36.006 46.4082 35.5124C46.9253 35.0189 47.6052 34.74 48.3143 34.7307Z" fill="#804702"/>
<path opacity="0.4" d="M43.6758 125.617L109.536 126.42L114.878 38.8359H48.9686L43.6758 125.617Z" fill="black"/>
<path d="M41.75 124.73H108.461C112.134 90.4896 113.264 72.0047 113.766 37.7812H47.0551C46.5538 72.0047 45.4278 90.4896 41.75 124.73Z" fill="white"/>
<path opacity="0.3" d="M105.787 61.5856H94.301C94.1852 61.5871 94.0705 61.5636 93.9642 61.5168C93.858 61.47 93.7627 61.4008 93.6846 61.3139C93.6054 61.2281 93.5441 61.1267 93.5046 61.0161C93.465 60.9054 93.448 60.7877 93.4545 60.6702L94.1654 48.9907C94.1789 48.7714 94.274 48.5656 94.4311 48.4151C94.5883 48.2645 94.796 48.1803 95.0119 48.1797H106.518C106.634 48.1801 106.748 48.2044 106.854 48.2513C106.96 48.2981 107.056 48.3664 107.135 48.4521C107.214 48.5378 107.275 48.639 107.315 48.7496C107.354 48.8601 107.371 48.9777 107.365 49.0952L106.649 60.7789C106.646 60.8898 106.62 60.9988 106.575 61.0997C106.529 61.2005 106.465 61.2911 106.384 61.3662C106.304 61.4413 106.21 61.4994 106.107 61.5371C106.004 61.5748 105.895 61.5913 105.787 61.5856ZM95.205 59.8634H104.989L105.585 49.9061H95.8091L95.205 59.8634Z" fill="#804702"/>
<path opacity="0.3" d="M104.697 79.3787H93.2153C93.0998 79.3783 92.9856 79.3541 92.8797 79.3073C92.7737 79.2606 92.6782 79.1924 92.5989 79.107C92.5191 79.0215 92.4575 78.9203 92.4179 78.8095C92.3783 78.6987 92.3616 78.5808 92.3688 78.4632L93.0797 66.7795C93.0933 66.5607 93.1885 66.3553 93.3458 66.2054C93.5031 66.0555 93.7107 65.9723 93.9263 65.9727H105.412C105.528 65.9713 105.642 65.9948 105.749 66.0416C105.855 66.0884 105.95 66.1575 106.028 66.2444C106.107 66.3303 106.169 66.4316 106.208 66.5423C106.248 66.6529 106.265 66.7706 106.258 66.8882L105.543 78.5677C105.531 78.7873 105.436 78.9936 105.279 79.1444C105.121 79.2952 104.913 79.379 104.697 79.3787ZM94.1153 77.6522H103.9L104.508 67.695H94.7235L94.1153 77.6522Z" fill="#804702"/>
<path opacity="0.3" d="M103.612 97.1716H92.1303C92.0141 97.1721 91.899 97.1482 91.7922 97.1014C91.6855 97.0547 91.5893 96.9861 91.5098 96.8999C91.4296 96.8148 91.3681 96.7135 91.3291 96.6026C91.2902 96.4916 91.2747 96.3736 91.2838 96.2561L91.9947 84.5766C92.0082 84.3574 92.1032 84.1516 92.2604 84.001C92.4176 83.8504 92.6252 83.7663 92.8412 83.7656H104.327C104.442 83.766 104.556 83.7902 104.662 83.837C104.768 83.8837 104.864 83.9519 104.943 84.0373C105.022 84.1236 105.083 84.225 105.122 84.3356C105.162 84.4461 105.179 84.5636 105.173 84.6811L104.458 96.3857C104.44 96.6008 104.342 96.801 104.186 96.9465C104.029 97.0921 103.824 97.1724 103.612 97.1716ZM93.0302 95.4493H102.815L103.423 85.4921H93.6384L93.0302 95.4493Z" fill="#804702"/>
<path opacity="0.3" d="M102.528 114.965H91.0463C90.9302 114.964 90.8154 114.94 90.7088 114.893C90.6022 114.846 90.5059 114.778 90.4258 114.693C90.3456 114.608 90.2841 114.507 90.2451 114.396C90.2062 114.285 90.1907 114.167 90.1998 114.049L90.9107 102.365C90.9252 102.147 91.0207 101.942 91.1778 101.792C91.3349 101.643 91.5419 101.559 91.7572 101.559H103.243C103.359 101.557 103.473 101.581 103.579 101.628C103.686 101.674 103.781 101.743 103.859 101.83C103.938 101.916 104 102.018 104.039 102.128C104.079 102.239 104.096 102.357 104.089 102.474L103.374 114.154C103.361 114.373 103.266 114.579 103.108 114.729C102.951 114.88 102.744 114.964 102.528 114.965ZM91.9462 113.238H101.731L102.339 103.281H92.5544L91.9462 113.238Z" fill="#804702"/>
<path opacity="0.3" d="M58.281 53.3554H84.2889C84.676 53.3493 85.047 53.1963 85.329 52.9264C85.611 52.6565 85.7838 52.2892 85.8134 51.8965C85.8271 51.7088 85.8023 51.5202 85.7406 51.3427C85.6788 51.1653 85.5815 51.0028 85.4548 50.8657C85.328 50.7285 85.1747 50.6196 85.0044 50.5459C84.8341 50.4722 84.6506 50.4353 84.4656 50.4376H58.4618C58.0741 50.4418 57.7021 50.5942 57.4197 50.8644C57.1373 51.1347 56.9651 51.5031 56.9372 51.8965C56.9236 52.0839 56.9483 52.2721 57.0098 52.4492C57.0713 52.6264 57.1683 52.7887 57.2946 52.9258C57.4208 53.0629 57.5737 53.1718 57.7435 53.2458C57.9133 53.3197 58.0963 53.3571 58.281 53.3554Z" fill="#804702"/>
<path opacity="0.3" d="M62.8489 59.3322H83.9092C84.2964 59.326 84.6673 59.173 84.9493 58.9032C85.2313 58.6333 85.4041 58.266 85.4338 57.8733C85.448 57.6856 85.4237 57.4969 85.3625 57.3193C85.3013 57.1416 85.2044 56.9788 85.0781 56.8412C84.9517 56.7037 84.7987 56.5943 84.6286 56.5201C84.4585 56.4459 84.2751 56.4085 84.09 56.4102H63.038C62.6502 56.4164 62.2787 56.57 61.9966 56.8408C61.7144 57.1115 61.5421 57.4798 61.5134 57.8733C61.4998 58.06 61.5243 58.2475 61.5853 58.4241C61.6463 58.6006 61.7425 58.7625 61.8679 58.8995C61.9933 59.0365 62.1452 59.1456 62.314 59.2201C62.4828 59.2945 62.6649 59.3327 62.8489 59.3322Z" fill="#804702"/>
<path opacity="0.3" d="M57.0106 74.2071H83.0185C83.2032 74.2054 83.3862 74.2427 83.556 74.3167C83.7258 74.3906 83.8787 74.4996 84.005 74.6367C84.1313 74.7738 84.2282 74.9361 84.2897 75.1132C84.3512 75.2904 84.3759 75.4786 84.3623 75.666C84.3326 76.0587 84.1598 76.426 83.8778 76.6959C83.5958 76.9657 83.2249 77.1187 82.8377 77.1249H56.8298C56.6451 77.1265 56.4621 77.0892 56.2923 77.0153C56.1225 76.9413 55.9697 76.8324 55.8434 76.6953C55.7171 76.5582 55.6201 76.3959 55.5586 76.2187C55.4971 76.0416 55.4724 75.8533 55.4861 75.666C55.5157 75.2733 55.6885 74.906 55.9705 74.6361C56.2525 74.3662 56.6235 74.2132 57.0106 74.2071Z" fill="#804702"/>
<path opacity="0.3" d="M62.3176 68.2267H83.3943C83.5793 68.2244 83.7628 68.2613 83.9331 68.335C84.1034 68.4087 84.2567 68.5176 84.3835 68.6547C84.5102 68.7919 84.6075 68.9544 84.6693 69.1318C84.731 69.3093 84.7558 69.4978 84.7421 69.6856C84.7135 70.079 84.5411 70.4473 84.259 70.7181C83.9769 70.9888 83.6054 71.1424 83.2176 71.1486H62.1409C61.9555 71.1509 61.7716 71.1139 61.601 71.04C61.4305 70.9661 61.2769 70.8568 61.1501 70.7192C61.0233 70.5815 60.9261 70.4185 60.8646 70.2406C60.8031 70.0626 60.7788 69.8736 60.793 69.6856C60.8227 69.2928 60.9955 68.9255 61.2775 68.6557C61.5595 68.3858 61.9304 68.2328 62.3176 68.2267Z" fill="#804702"/>
<path opacity="0.3" d="M56.1119 88.9413H82.1198C82.5069 88.9352 82.8779 88.7822 83.1599 88.5123C83.4419 88.2424 83.6147 87.8751 83.6444 87.4824C83.658 87.2947 83.6332 87.1061 83.5715 86.9287C83.5097 86.7512 83.4124 86.5888 83.2857 86.4516C83.1589 86.3144 83.0056 86.2055 82.8353 86.1319C82.665 86.0582 82.4815 86.0213 82.2965 86.0235H56.2763C55.8891 86.0297 55.5182 86.1827 55.2362 86.4525C54.9542 86.7224 54.7814 87.0897 54.7517 87.4824C54.7379 87.6712 54.7631 87.8609 54.8256 88.0392C54.8881 88.2175 54.9865 88.3806 55.1146 88.518C55.2426 88.6553 55.3975 88.7639 55.5693 88.8368C55.741 88.9098 55.9258 88.9453 56.1119 88.9413Z" fill="#804702"/>
<path opacity="0.3" d="M71.2884 94.9181H81.7507C82.1379 94.912 82.5088 94.759 82.7908 94.4891C83.0729 94.2192 83.2456 93.8519 83.2753 93.4592C83.2889 93.2713 83.2641 93.0825 83.2024 92.9049C83.1407 92.7272 83.0434 92.5645 82.9168 92.427C82.7901 92.2895 82.6368 92.1802 82.4665 92.1061C82.2962 92.0319 82.1126 91.9945 81.9274 91.9961H71.4774C71.0899 92.0033 70.7189 92.1572 70.437 92.4278C70.1551 92.6983 69.9825 93.0661 69.9529 93.4592C69.9393 93.6459 69.9638 93.8334 70.0248 94.01C70.0858 94.1866 70.182 94.3484 70.3074 94.4854C70.4328 94.6224 70.5846 94.7315 70.7535 94.806C70.9223 94.8805 71.1044 94.9186 71.2884 94.9181Z" fill="#804702"/>
<path opacity="0.3" d="M60.6953 94.9181H66.2141C66.6012 94.912 66.9722 94.759 67.2542 94.4891C67.5362 94.2192 67.709 93.8519 67.7386 93.4592C67.7523 93.2713 67.7275 93.0825 67.6658 92.9049C67.604 92.7272 67.5068 92.5645 67.3801 92.427C67.2535 92.2895 67.1001 92.1802 66.9299 92.1061C66.7596 92.0319 66.576 91.9945 66.3908 91.9961H60.872C60.4844 92.0033 60.1135 92.1572 59.8315 92.4278C59.5496 92.6983 59.377 93.0661 59.3474 93.4592C59.3337 93.6469 59.3585 93.8355 59.4203 94.013C59.482 94.1904 59.5794 94.3529 59.7061 94.4901C59.8328 94.6272 59.9862 94.7361 60.1565 94.8098C60.3267 94.8835 60.5102 94.9204 60.6953 94.9181Z" fill="#804702"/>
<path opacity="0.3" d="M55.0418 106.738H81.0497C81.4368 106.732 81.8078 106.579 82.0898 106.309C82.3718 106.04 82.5446 105.672 82.5742 105.28C82.5879 105.092 82.5631 104.903 82.5014 104.725C82.4397 104.548 82.3424 104.385 82.2157 104.247C82.0891 104.11 81.9357 104.001 81.7655 103.926C81.5952 103.852 81.4116 103.815 81.2264 103.816H55.2021C54.8143 103.823 54.4428 103.976 54.1607 104.247C53.8785 104.518 53.7062 104.886 53.6775 105.28C53.6637 105.469 53.6889 105.659 53.7517 105.837C53.8144 106.016 53.9132 106.179 54.0417 106.317C54.1702 106.454 54.3256 106.563 54.4979 106.635C54.6701 106.708 54.8554 106.743 55.0418 106.738Z" fill="#804702"/>
<path opacity="0.3" d="M59.6093 112.715H80.6696C81.0571 112.708 81.4281 112.554 81.71 112.283C81.9919 112.013 82.1645 111.645 82.1941 111.252C82.2078 111.064 82.183 110.876 82.1213 110.698C82.0595 110.521 81.9622 110.358 81.8354 110.221C81.7087 110.084 81.5553 109.975 81.3851 109.901C81.2148 109.828 81.0313 109.791 80.8463 109.793H59.786C59.3989 109.799 59.0279 109.952 58.7459 110.222C58.4639 110.492 58.2911 110.859 58.2615 111.252C58.2478 111.44 58.2726 111.629 58.3343 111.806C58.396 111.984 58.4933 112.147 58.62 112.284C58.7466 112.422 58.8999 112.531 59.0702 112.605C59.2405 112.679 59.4241 112.717 59.6093 112.715Z" fill="#804702"/>
<path d="M99.4677 58.3843C99.2974 58.3856 99.1308 58.333 98.9911 58.2338L94.5653 55.1614C94.3964 55.0255 94.2844 54.8295 94.2519 54.6129C94.2195 54.3963 94.269 54.1752 94.3905 53.9943C94.512 53.8134 94.6964 53.6862 94.9066 53.6382C95.1168 53.5902 95.337 53.6251 95.5228 53.7359L99.3034 56.3653C100.684 54.6723 104.621 50.0949 107.896 48.5942C107.998 48.5481 108.107 48.5228 108.219 48.5198C108.33 48.5168 108.441 48.5362 108.545 48.5767C108.649 48.6173 108.744 48.6783 108.825 48.7562C108.906 48.8342 108.97 48.9276 109.016 49.0311C109.061 49.1345 109.086 49.2461 109.089 49.3593C109.092 49.4726 109.073 49.5853 109.033 49.6911C108.993 49.7969 108.933 49.8936 108.856 49.9758C108.78 50.058 108.688 50.1241 108.586 50.1702C105.011 51.7879 100.183 57.9955 100.138 58.0582C100.057 58.1603 99.9553 58.2427 99.8393 58.2991C99.7233 58.3556 99.5963 58.3847 99.4677 58.3843Z" fill="#804702"/>
<path d="M97.4087 75.8348C97.1887 75.8354 96.9769 75.7501 96.8169 75.5965L92.9665 71.8343C92.803 71.6752 92.7083 71.4566 92.7033 71.2265C92.6983 70.9964 92.7834 70.7737 92.9398 70.6074C93.0962 70.4411 93.3111 70.3448 93.5373 70.3397C93.7635 70.3346 93.9824 70.4212 94.1459 70.5803L97.4333 73.7948C99.0565 72.3192 103.597 68.3898 107.033 67.4367C107.141 67.4068 107.253 67.3988 107.364 67.4132C107.475 67.4276 107.582 67.464 107.679 67.5205C107.777 67.577 107.862 67.6524 107.93 67.7424C107.999 67.8323 108.049 67.9352 108.079 68.045C108.108 68.1547 108.116 68.2694 108.102 68.3822C108.088 68.4951 108.052 68.6041 107.996 68.7029C107.941 68.8016 107.867 68.8883 107.778 68.958C107.69 69.0277 107.589 69.0789 107.481 69.1088C103.733 70.1497 98.0579 75.5589 98.0004 75.6132C97.921 75.688 97.8278 75.746 97.7263 75.784C97.6247 75.8221 97.5168 75.8393 97.4087 75.8348Z" fill="#804702"/>
<path opacity="0.4" d="M90.2058 39.8395H91.4385C91.7688 39.8429 92.0965 39.78 92.4028 39.6544C92.7092 39.5289 92.9883 39.3433 93.2241 39.108C93.4599 38.8728 93.6479 38.5926 93.7773 38.2835C93.9066 37.9743 93.9749 37.6423 93.9781 37.3063V34.9738C93.9781 34.9399 93.9715 34.9064 93.9586 34.8752C93.9458 34.844 93.927 34.8157 93.9032 34.792C93.8795 34.7682 93.8514 34.7495 93.8205 34.737C93.7896 34.7244 93.7566 34.7182 93.7233 34.7188H90.2386C90.1638 34.7199 90.0922 34.7506 90.0393 34.8045C89.9864 34.8583 89.9561 34.9311 89.9551 35.0072L89.9715 39.5846C89.9714 39.6494 89.9955 39.7118 90.039 39.7592C90.0825 39.8066 90.1422 39.8353 90.2058 39.8395Z" fill="black"/>
<path d="M71.2949 30.5008H92.2771C92.5768 30.4921 92.8747 30.5512 93.1493 30.6738C93.4239 30.7965 93.6682 30.9796 93.8648 31.2099C94.0614 31.4403 94.2052 31.7121 94.286 32.0059C94.3667 32.2997 94.3824 32.608 94.3318 32.9086L93.703 37.6616C93.6009 38.3185 93.2765 38.9185 92.7859 39.3581C92.2952 39.7977 91.6691 40.0493 91.0155 40.0694H70.0251C69.7254 40.0781 69.4275 40.019 69.1529 39.8964C68.8784 39.7737 68.634 39.5906 68.4374 39.3603C68.2408 39.1299 68.097 38.8581 68.0162 38.5643C67.9355 38.2705 67.9199 37.9622 67.9705 37.6616L68.6033 32.9086C68.7056 32.251 69.0306 31.6504 69.5221 31.2107C70.0136 30.7711 70.6407 30.52 71.2949 30.5008Z" fill="#804702"/>
<path opacity="0.6" d="M71.2949 30.5008H92.2771C92.5768 30.4921 92.8747 30.5512 93.1493 30.6738C93.4239 30.7965 93.6682 30.9796 93.8648 31.2099C94.0614 31.4403 94.2052 31.7121 94.286 32.0059C94.3667 32.2997 94.3824 32.608 94.3318 32.9086L93.703 37.6616C93.6009 38.3185 93.2765 38.9185 92.7859 39.3581C92.2952 39.7977 91.6691 40.0493 91.0155 40.0694H70.0251C69.7254 40.0781 69.4275 40.019 69.1529 39.8964C68.8784 39.7737 68.634 39.5906 68.4374 39.3603C68.2408 39.1299 68.097 38.8581 68.0162 38.5643C67.9355 38.2705 67.9199 37.9622 67.9705 37.6616L68.6033 32.9086C68.7056 32.251 69.0306 31.6504 69.5221 31.2107C70.0136 30.7711 70.6407 30.52 71.2949 30.5008Z" fill="white"/>
<path opacity="0.5" d="M91.7352 32.8016H82.2838C82.1961 32.8088 82.1079 32.7974 82.0248 32.7682C81.9416 32.739 81.8654 32.6926 81.8007 32.6319C81.7361 32.5713 81.6845 32.4976 81.6492 32.4157C81.6139 32.3337 81.5957 32.2452 81.5957 32.1557C81.5957 32.0663 81.6139 31.9778 81.6492 31.8958C81.6845 31.8139 81.7361 31.7402 81.8007 31.6796C81.8654 31.6189 81.9416 31.5725 82.0248 31.5433C82.1079 31.5141 82.1961 31.5027 82.2838 31.5099H91.7352C91.8948 31.523 92.0436 31.5967 92.1522 31.7164C92.2608 31.836 92.321 31.9929 92.321 32.1557C92.321 32.3186 92.2608 32.4755 92.1522 32.5951C92.0436 32.7148 91.8948 32.7885 91.7352 32.8016Z" fill="white"/>
<path opacity="0.5" d="M79.1415 32.8016H78.1471C78.0594 32.8088 77.9712 32.7974 77.8881 32.7682C77.8049 32.739 77.7286 32.6926 77.664 32.6319C77.5994 32.5713 77.5478 32.4976 77.5125 32.4157C77.4772 32.3337 77.459 32.2452 77.459 32.1557C77.459 32.0663 77.4772 31.9778 77.5125 31.8958C77.5478 31.8139 77.5994 31.7402 77.664 31.6796C77.7286 31.6189 77.8049 31.5725 77.8881 31.5433C77.9712 31.5141 78.0594 31.5027 78.1471 31.5099H79.1415C79.2292 31.5027 79.3174 31.5141 79.4005 31.5433C79.4836 31.5725 79.5599 31.6189 79.6246 31.6796C79.6892 31.7402 79.7408 31.8139 79.7761 31.8958C79.8114 31.9778 79.8296 32.0663 79.8296 32.1557C79.8296 32.2452 79.8114 32.3337 79.7761 32.4157C79.7408 32.4976 79.6892 32.5713 79.6246 32.6319C79.5599 32.6926 79.4836 32.739 79.4005 32.7682C79.3174 32.7974 79.2292 32.8088 79.1415 32.8016Z" fill="white"/>
</svg>
