<svg width="136" height="25" viewBox="0 0 136 25" fill="none" xmlns="http://www.w3.org/2000/svg">
<path d="M22.4256 9.63125C22.3318 9.33592 22.1509 9.07584 21.9066 8.88513C21.6624 8.69441 21.3662 8.58195 21.0569 8.5625L15.4881 8.17813L13.4256 2.975C13.313 2.6885 13.117 2.44241 12.8629 2.26858C12.6089 2.09475 12.3085 2.00118 12.0006 2C11.6928 2.00118 11.3924 2.09475 11.1384 2.26858C10.8843 2.44241 10.6883 2.6885 10.5756 2.975L8.47564 8.20625L2.94439 8.5625C2.63549 8.58321 2.33991 8.69615 2.09589 8.88668C1.85188 9.07722 1.67064 9.33659 1.57564 9.63125C1.47809 9.93043 1.47239 10.252 1.55928 10.5544C1.64617 10.8569 1.82167 11.1263 2.06314 11.3281L6.31939 14.9281L5.05377 19.9062C4.9662 20.243 4.98196 20.5983 5.099 20.926C5.21603 21.2537 5.42893 21.5386 5.71002 21.7438C5.98286 21.9396 6.30793 22.0495 6.64362 22.0596C6.97931 22.0696 7.31036 21.9792 7.59439 21.8L11.9913 19.0156H12.01L16.7444 22.0062C16.9873 22.1641 17.2704 22.2487 17.56 22.25C17.7965 22.2481 18.0294 22.1921 18.2408 22.0861C18.4523 21.9802 18.6366 21.8272 18.7797 21.6389C18.9227 21.4505 19.0207 21.2319 19.066 20.9998C19.1114 20.7677 19.1029 20.5283 19.0413 20.3L17.7006 14.8531L21.9381 11.3281C22.1796 11.1263 22.3551 10.8569 22.442 10.5544C22.5289 10.252 22.5232 9.93043 22.4256 9.63125Z" fill="#FEBF45"/>
<path d="M50.4256 9.63125C50.3318 9.33592 50.1509 9.07584 49.9066 8.88513C49.6624 8.69441 49.3662 8.58195 49.0569 8.5625L43.4881 8.17813L41.4256 2.975C41.313 2.6885 41.117 2.44241 40.8629 2.26858C40.6089 2.09475 40.3085 2.00118 40.0006 2C39.6928 2.00118 39.3924 2.09475 39.1384 2.26858C38.8843 2.44241 38.6883 2.6885 38.5756 2.975L36.4756 8.20625L30.9444 8.5625C30.6355 8.58321 30.3399 8.69615 30.0959 8.88668C29.8519 9.07722 29.6706 9.33659 29.5756 9.63125C29.4781 9.93043 29.4724 10.252 29.5593 10.5544C29.6462 10.8569 29.8217 11.1263 30.0631 11.3281L34.3194 14.9281L33.0538 19.9062C32.9662 20.243 32.982 20.5983 33.099 20.926C33.216 21.2537 33.4289 21.5386 33.71 21.7438C33.9829 21.9396 34.3079 22.0495 34.6436 22.0596C34.9793 22.0696 35.3104 21.9792 35.5944 21.8L39.9913 19.0156H40.01L44.7444 22.0062C44.9873 22.1641 45.2704 22.2487 45.56 22.25C45.7965 22.2481 46.0294 22.1921 46.2408 22.0861C46.4523 21.9802 46.6366 21.8272 46.7797 21.6389C46.9227 21.4505 47.0207 21.2319 47.066 20.9998C47.1114 20.7677 47.1029 20.5283 47.0413 20.3L45.7006 14.8531L49.9381 11.3281C50.1796 11.1263 50.3551 10.8569 50.442 10.5544C50.5289 10.252 50.5232 9.93043 50.4256 9.63125Z" fill="#FEBF45"/>
<path d="M78.4256 9.63125C78.3318 9.33592 78.1509 9.07584 77.9066 8.88513C77.6624 8.69441 77.3662 8.58195 77.0569 8.5625L71.4881 8.17813L69.4256 2.975C69.313 2.6885 69.117 2.44241 68.8629 2.26858C68.6089 2.09475 68.3085 2.00118 68.0006 2C67.6928 2.00118 67.3924 2.09475 67.1384 2.26858C66.8843 2.44241 66.6883 2.6885 66.5756 2.975L64.4756 8.20625L58.9444 8.5625C58.6355 8.58321 58.3399 8.69615 58.0959 8.88668C57.8519 9.07722 57.6706 9.33659 57.5756 9.63125C57.4781 9.93043 57.4724 10.252 57.5593 10.5544C57.6462 10.8569 57.8217 11.1263 58.0631 11.3281L62.3194 14.9281L61.0538 19.9062C60.9662 20.243 60.982 20.5983 61.099 20.926C61.216 21.2537 61.4289 21.5386 61.71 21.7438C61.9829 21.9396 62.3079 22.0495 62.6436 22.0596C62.9793 22.0696 63.3104 21.9792 63.5944 21.8L67.9913 19.0156H68.01L72.7444 22.0062C72.9873 22.1641 73.2704 22.2487 73.56 22.25C73.7965 22.2481 74.0294 22.1921 74.2408 22.0861C74.4523 21.9802 74.6366 21.8272 74.7797 21.6389C74.9227 21.4505 75.0207 21.2319 75.066 20.9998C75.1114 20.7677 75.1029 20.5283 75.0413 20.3L73.7006 14.8531L77.9381 11.3281C78.1796 11.1263 78.3551 10.8569 78.442 10.5544C78.5289 10.252 78.5232 9.93043 78.4256 9.63125Z" fill="#FEBF45"/>
<path d="M106.426 9.63125C106.332 9.33592 106.151 9.07584 105.907 8.88513C105.662 8.69441 105.366 8.58195 105.057 8.5625L99.4881 8.17813L97.4256 2.975C97.313 2.6885 97.117 2.44241 96.8629 2.26858C96.6089 2.09475 96.3085 2.00118 96.0006 2C95.6928 2.00118 95.3924 2.09475 95.1384 2.26858C94.8843 2.44241 94.6883 2.6885 94.5756 2.975L92.4756 8.20625L86.9444 8.5625C86.6355 8.58321 86.3399 8.69615 86.0959 8.88668C85.8519 9.07722 85.6706 9.33659 85.5756 9.63125C85.4781 9.93043 85.4724 10.252 85.5593 10.5544C85.6462 10.8569 85.8217 11.1263 86.0631 11.3281L90.3194 14.9281L89.0538 19.9062C88.9662 20.243 88.982 20.5983 89.099 20.926C89.216 21.2537 89.4289 21.5386 89.71 21.7438C89.9829 21.9396 90.3079 22.0495 90.6436 22.0596C90.9793 22.0696 91.3104 21.9792 91.5944 21.8L95.9913 19.0156H96.01L100.744 22.0062C100.987 22.1641 101.27 22.2487 101.56 22.25C101.797 22.2481 102.029 22.1921 102.241 22.0861C102.452 21.9802 102.637 21.8272 102.78 21.6389C102.923 21.4505 103.021 21.2319 103.066 20.9998C103.111 20.7677 103.103 20.5283 103.041 20.3L101.701 14.8531L105.938 11.3281C106.18 11.1263 106.355 10.8569 106.442 10.5544C106.529 10.252 106.523 9.93043 106.426 9.63125Z" fill="#FEBF45"/>
<path d="M134.426 9.63106C134.332 9.33573 134.151 9.07565 133.907 8.88494C133.662 8.69422 133.366 8.58176 133.057 8.56231L127.526 8.20606C127.517 8.20507 127.51 8.20196 127.503 8.19702C127.497 8.19208 127.491 8.1855 127.488 8.17793L125.426 2.97481C125.314 2.68733 125.119 2.44025 124.864 2.26601C124.61 2.09178 124.309 1.99854 124.001 1.99854C123.692 1.99854 123.391 2.09178 123.137 2.26601C122.883 2.44025 122.687 2.68733 122.576 2.97481L120.513 8.17793C120.51 8.1855 120.505 8.19208 120.498 8.19702C120.492 8.20196 120.484 8.20507 120.476 8.20606L114.944 8.56231C114.635 8.58176 114.339 8.69422 114.095 8.88494C113.85 9.07565 113.67 9.33573 113.576 9.63106C113.478 9.93023 113.472 10.2518 113.559 10.5542C113.646 10.8567 113.822 11.1262 114.063 11.3279L118.301 14.8529C118.31 14.8626 118.317 14.8746 118.32 14.8878C118.324 14.901 118.323 14.9149 118.319 14.9279L117.054 19.9061C116.968 20.2429 116.984 20.5978 117.101 20.9252C117.218 21.2526 117.43 21.5376 117.71 21.7436C117.983 21.9394 118.308 22.0493 118.644 22.0594C118.979 22.0694 119.31 21.979 119.594 21.7998L123.991 19.0154H124.01L128.744 22.0061C128.987 22.1639 129.27 22.2485 129.56 22.2498C129.88 22.2455 130.19 22.1442 130.451 21.9592C130.705 21.7746 130.898 21.5173 131.003 21.2211C131.109 20.9249 131.122 20.6037 131.041 20.2998L129.682 14.9279C129.678 14.9149 129.678 14.901 129.681 14.8878C129.684 14.8746 129.691 14.8626 129.701 14.8529L133.938 11.3279C134.18 11.1262 134.355 10.8567 134.442 10.5542C134.529 10.2518 134.523 9.93023 134.426 9.63106ZM132.982 10.1748L128.735 13.6998C128.51 13.8911 128.342 14.1421 128.253 14.4239C128.163 14.7058 128.155 15.0072 128.229 15.2936L129.588 20.6654C129.598 20.7029 129.598 20.7123 129.588 20.7217C129.582 20.7337 129.572 20.7436 129.56 20.7498H129.541L124.816 17.7498C124.573 17.5948 124.289 17.5134 124.001 17.5154V3.49981C124.01 3.49981 124.019 3.49981 124.029 3.52793L126.101 8.73106C126.206 9.00193 126.387 9.2373 126.62 9.40987C126.854 9.58244 127.133 9.68514 127.423 9.70606L132.963 10.0623C132.973 10.0623 132.982 10.0623 132.991 10.0998C133.001 10.1373 132.991 10.1654 132.982 10.1748Z" fill="#FEBF45"/>
</svg>
