<svg width="40" height="40" viewBox="0 0 40 40" fill="none" xmlns="http://www.w3.org/2000/svg">
<rect width="40" height="40" rx="20" fill="#CCCCD8"/>
<path fill-rule="evenodd" clip-rule="evenodd" d="M20 10.25C20 10.25 21.9831 10.25 23.7954 11.0165C23.7954 11.0165 25.5452 11.7566 26.8943 13.1057C26.8943 13.1057 28.2434 14.4548 28.9835 16.2046C28.9835 16.2046 29.75 18.0169 29.75 20C29.75 20 29.75 21.9831 28.9835 23.7954C28.9835 23.7954 28.2434 25.5452 26.8943 26.8943C26.8943 26.8943 25.5452 28.2434 23.7954 28.9835C23.7954 28.9835 21.9831 29.75 20 29.75C20 29.75 18.0169 29.75 16.2046 28.9835C16.2046 28.9835 14.4548 28.2434 13.1057 26.8943C13.1057 26.8943 11.7566 25.5452 11.0165 23.7954C11.0165 23.7954 10.25 21.9831 10.25 20C10.25 20 10.25 18.0169 11.0165 16.2046C11.0165 16.2046 11.7566 14.4548 13.1057 13.1057C13.1057 13.1057 14.4548 11.7566 16.2046 11.0165C16.2046 11.0165 18.0169 10.25 20 10.25ZM20 11.75C20 11.75 18.321 11.75 16.789 12.398C16.789 12.398 15.3086 13.0242 14.1664 14.1664C14.1664 14.1664 13.0242 15.3086 12.398 16.789C12.398 16.789 11.75 18.321 11.75 20C11.75 20 11.75 21.679 12.398 23.211C12.398 23.211 13.0242 24.6914 14.1664 25.8336C14.1664 25.8336 15.3086 26.9758 16.789 27.602C16.789 27.602 18.321 28.25 20 28.25C20 28.25 21.679 28.25 23.211 27.602C23.211 27.602 24.6914 26.9758 25.8336 25.8336C25.8336 25.8336 26.9758 24.6914 27.602 23.211C27.602 23.211 28.25 21.6789 28.25 20C28.25 20 28.25 18.3211 27.602 16.789C27.602 16.789 26.9758 15.3086 25.8336 14.1664C25.8336 14.1664 24.6914 13.0242 23.211 12.398C23.211 12.398 21.679 11.75 20 11.75Z" fill="#262633"/>
<path d="M19.25 15.5V20.75C19.25 21.1642 19.5858 21.5 20 21.5C20.4142 21.5 20.75 21.1642 20.75 20.75V15.5C20.75 15.0858 20.4142 14.75 20 14.75C19.5858 14.75 19.25 15.0858 19.25 15.5Z" fill="#262633"/>
<path d="M21.125 24.125C21.125 24.7463 20.6213 25.25 20 25.25C19.3787 25.25 18.875 24.7463 18.875 24.125C18.875 23.5037 19.3787 23 20 23C20.6213 23 21.125 23.5037 21.125 24.125Z" fill="#262633"/>
</svg>
