<svg width="100" height="60" viewBox="0 0 100 60" fill="none" xmlns="http://www.w3.org/2000/svg">
<g id="Illustration">
<g id="magnifying-glass">
<g id="magnifying-glas">
<path id="Vector" d="M99.9998 7.23324C99.9726 5.92175 99.6423 4.63526 99.0358 3.47805C98.4294 2.32083 97.5638 1.32546 96.5092 0.572608C95.5368 -0.0563139 94.6034 -0.150404 93.9227 0.206151C89.8146 2.30586 60.9461 21.1587 59.1035 22.0897H59.0792C58.8849 22.2209 58.7285 22.4025 58.626 22.6157C58.5235 22.829 58.4785 23.0662 58.4958 23.3029C58.5071 23.964 58.6721 24.613 58.9771 25.1966C59.2822 25.7802 59.7187 26.2819 60.2509 26.6605C60.435 26.807 60.6542 26.9007 60.8858 26.932C61.1174 26.9634 61.3531 26.9312 61.5684 26.8388H61.5975C64.5145 25.1996 93.0088 12.8292 98.833 9.64989C99.5185 9.26362 99.9609 8.43166 99.9998 7.23324Z" fill="#1A1A7A"/>
<path id="Vector_2" opacity="0.1" d="M98.8678 3.16822C98.2965 2.12391 97.488 1.23412 96.5099 0.573295C95.5376 -0.0556269 94.6139 -0.149718 93.9333 0.201885L93.8457 0.251405C90.0974 2.20255 68.6137 16.1626 61.3844 20.7038L61.3358 20.7335L61.0441 20.9167L60.9566 20.9712L60.7913 21.0752L60.5968 21.194C59.8335 21.6892 59.3182 21.9765 59.1383 22.0805H59.114C59.0522 22.1178 58.995 22.1627 58.9439 22.2142C58.8075 22.3567 58.7006 22.5258 58.6296 22.7112C58.5587 22.8967 58.525 23.0948 58.5306 23.2937C58.521 23.4339 58.521 23.5745 58.5306 23.7147C58.5306 23.7691 58.5306 23.8236 58.5549 23.8781C58.5792 23.9326 58.5841 24.0465 58.6035 24.1356C58.623 24.2247 58.6376 24.2743 58.657 24.3386C58.6765 24.403 58.7056 24.5021 58.7348 24.5813C58.764 24.6605 58.7786 24.7001 58.798 24.7596V24.7893L98.8678 3.16822Z" fill="black"/>
<path id="Vector_3" d="M60.2463 26.6667C59.7167 26.289 59.2818 25.7896 58.9769 25.2089C58.672 24.6281 58.5056 23.9824 58.4912 23.324C58.535 22.1157 59.3809 21.6502 60.3873 22.289C60.9175 22.6672 61.3528 23.1675 61.6577 23.7491C61.9627 24.3308 62.1287 24.9774 62.1423 25.6367C62.1034 26.845 61.2526 27.3155 60.2463 26.6667Z" fill="#1A1A7A"/>
<path id="Vector_4" d="M51.6171 27.478C51.6285 27.9839 51.7563 28.48 51.9902 28.9263C52.2241 29.3727 52.5575 29.757 52.9638 30.0482C53.1048 30.1593 53.2724 30.2302 53.4492 30.2537C53.626 30.2772 53.8058 30.2524 53.9701 30.1819L60.9515 26.3935C61.0998 26.2932 61.2193 26.1547 61.2979 25.992C61.3764 25.8293 61.4113 25.6483 61.3987 25.4675C61.3881 24.9615 61.2606 24.4651 61.0267 24.0186C60.7927 23.5721 60.4588 23.188 60.0521 22.8973C59.9117 22.7849 59.7444 22.7128 59.5674 22.6884C59.3905 22.664 59.2104 22.6883 59.0457 22.7586L52.0643 26.547C51.9153 26.6477 51.7953 26.7871 51.7167 26.9507C51.6381 27.1143 51.6037 27.2964 51.6171 27.478Z" fill="#37474F"/>
<path id="Vector_5" d="M52.0746 26.547C51.9238 26.6465 51.8018 26.7853 51.7215 26.9491C51.6411 27.1128 51.6053 27.2954 51.6176 27.478C51.6151 27.8539 51.6879 28.2263 51.8315 28.5725L60.8353 23.6797C60.6312 23.3692 60.3685 23.1032 60.0623 22.8973C59.9219 22.7849 59.7546 22.7128 59.5777 22.6884C59.4007 22.664 59.2206 22.6883 59.056 22.7586L52.0746 26.547Z" fill="#263238"/>
<path id="Vector_6" d="M60.5774 33.7871C60.5774 29.2312 57.6215 24.6752 51.7048 21.1988C39.8813 14.241 20.7068 14.241 8.87841 21.1988C2.96663 24.6653 0.0107422 29.2312 0.0107422 33.7871V42.2058C0.0107422 46.7618 2.96663 51.3177 8.88328 54.7991C20.7068 61.7321 39.8813 61.7321 51.7048 54.7991C57.6215 51.3326 60.5774 46.7618 60.5774 42.2058V33.7871ZM10.3321 23.7789C15.6118 20.6739 22.6953 18.9654 30.2649 18.9654C37.8345 18.9654 44.9325 20.6739 50.1977 23.7789C54.9719 26.5867 57.602 30.1424 57.602 33.7921C57.602 37.4418 54.9719 40.9925 50.1977 43.8004C44.9179 46.9054 37.8345 48.6139 30.2649 48.6139C22.6953 48.6139 15.5972 46.9054 10.3321 43.8004C5.55304 40.9925 2.92774 37.4369 2.92774 33.7921C2.92774 30.1473 5.56762 26.5867 10.3321 23.7789Z" fill="#1A1A7A"/>
<path id="Vector_7" opacity="0.3" d="M8.87354 46.3801C20.702 53.3378 39.8715 53.3378 51.6999 46.3801C63.5284 39.4223 63.5284 28.1512 51.6999 21.1984C39.8715 14.2456 20.702 14.2406 8.87354 21.1984C-2.95489 28.1562 -2.94517 39.4272 8.87354 46.3801ZM2.93258 33.7917C2.93258 30.142 5.56274 26.5863 10.3369 23.7785C15.6215 20.6735 22.705 18.965 30.2697 18.965C37.8345 18.965 44.9374 20.6735 50.2025 23.7785C54.9767 26.5863 57.6068 30.142 57.6068 33.7917C57.6068 37.4414 54.9767 40.9921 50.2025 43.8C44.9179 46.905 37.8345 48.6135 30.2697 48.6135C22.705 48.6135 15.6021 46.905 10.3369 43.8C5.5676 40.9921 2.93744 37.4365 2.93744 33.7917H2.93258Z" fill="white"/>
<path id="Vector_8" d="M2.93652 33.7876C2.95377 35.2715 3.36177 36.7235 4.11791 37.992C5.31874 35.8724 7.43357 33.8866 10.3457 32.1781C15.6206 29.0682 22.7089 27.3597 30.2785 27.3597C37.8481 27.3597 44.9462 29.0682 50.2113 32.1781C53.1283 33.8866 55.2383 35.8724 56.444 37.992C57.1965 36.7221 57.6026 35.2707 57.6205 33.7876C57.6205 30.1428 54.9904 26.5872 50.2113 23.7793C44.9364 20.6743 37.8481 18.9658 30.2785 18.9658C22.7089 18.9658 15.606 20.6743 10.3457 23.7793C5.56669 26.5872 2.93652 30.1428 2.93652 33.7876Z" fill="#1A1A7A"/>
<path id="Vector_9" opacity="0.1" d="M2.93652 33.7876C2.95377 35.2715 3.36177 36.7235 4.11791 37.992C5.31874 35.8724 7.43357 33.8866 10.3457 32.1781C15.6206 29.0682 22.7089 27.3597 30.2785 27.3597C37.8481 27.3597 44.9462 29.0682 50.2113 32.1781C53.1283 33.8866 55.2383 35.8724 56.444 37.992C57.1965 36.7221 57.6026 35.2707 57.6205 33.7876C57.6205 30.1428 54.9904 26.5872 50.2113 23.7793C44.9364 20.6743 37.8481 18.9658 30.2785 18.9658C22.7089 18.9658 15.606 20.6743 10.3457 23.7793C5.56669 26.5872 2.93652 30.1428 2.93652 33.7876Z" fill="black"/>
<path id="Vector_10" opacity="0.4" d="M10.3312 27.5826C15.6158 24.4776 22.6992 22.7642 30.264 22.7642C37.8287 22.7642 44.9316 24.4776 50.1968 27.5826C54.1348 29.9002 56.6093 32.7229 57.358 35.6893C56.6093 38.6605 54.1348 41.4833 50.1968 43.8009C44.9122 46.9059 37.8287 48.6143 30.264 48.6143C22.6992 48.6143 15.5963 46.9059 10.3312 43.8009C6.3932 41.4833 3.91862 38.6556 3.16992 35.6893C3.92834 32.7229 6.40293 29.9002 10.3312 27.5826Z" fill="white"/>
<path id="Vector_11" opacity="0.1" d="M23.1565 51.0855V59.5042C17.9254 58.7614 12.947 57.1915 8.88268 54.7897C2.96604 51.3232 0.0101458 46.7524 0.0101458 42.1915V33.7728C0.0122174 32.8447 0.133154 31.9207 0.369904 31.0244C-1.0886 36.447 1.77007 42.1865 8.87296 46.3761C12.9665 48.7878 17.9254 50.3576 23.1565 51.0855Z" fill="black"/>
</g>
</g>
</g>
</svg>
