<svg width="18" height="14" viewBox="0 0 18 14" fill="none" xmlns="http://www.w3.org/2000/svg">
<path d="M6 1.75H17.25C17.6642 1.75 18 1.41421 18 1C18 0.585786 17.6642 0.25 17.25 0.25H6C5.58579 0.25 5.25 0.585786 5.25 1C5.25 1.41421 5.58579 1.75 6 1.75Z" fill="#1C1C1C"/>
<path d="M6 7.75H17.25C17.6642 7.75 18 7.41421 18 7C18 6.58579 17.6642 6.25 17.25 6.25H6C5.58579 6.25 5.25 6.58579 5.25 7C5.25 7.41421 5.58579 7.75 6 7.75Z" fill="#1C1C1C"/>
<path d="M6 13.75H17.25C17.6642 13.75 18 13.4142 18 13C18 12.5858 17.6642 12.25 17.25 12.25H6C5.58579 12.25 5.25 12.5858 5.25 13C5.25 13.4142 5.58579 13.75 6 13.75Z" fill="#1C1C1C"/>
<path d="M0 1C0 1.41421 0.335786 1.75 0.75 1.75H2.25C2.66421 1.75 3 1.41421 3 1C3 0.585786 2.66421 0.25 2.25 0.25H0.75C0.335786 0.25 0 0.585786 0 1Z" fill="#1C1C1C"/>
<path d="M0 7C0 7.41421 0.335786 7.75 0.75 7.75H2.25C2.66421 7.75 3 7.41421 3 7C3 6.58579 2.66421 6.25 2.25 6.25H0.75C0.335786 6.25 0 6.58579 0 7Z" fill="#1C1C1C"/>
<path d="M0 13C0 13.4142 0.335786 13.75 0.75 13.75H2.25C2.66421 13.75 3 13.4142 3 13C3 12.5858 2.66421 12.25 2.25 12.25H0.75C0.335786 12.25 0 12.5858 0 13Z" fill="#1C1C1C"/>
</svg>
