<svg width="40" height="40" viewBox="0 0 40 40" fill="none" xmlns="http://www.w3.org/2000/svg">
<rect width="40" height="40" rx="20" fill="#F8FFF8"/>
<path fill-rule="evenodd" clip-rule="evenodd" d="M29.75 25.627L29.75 25.6292C29.75 25.6292 29.7473 26.0331 29.543 26.3817C29.543 26.3817 29.3383 26.7313 28.986 26.9314L20.7333 31.5735C20.7333 31.5735 20.3969 31.7678 20 31.7678C20 31.7678 19.6031 31.7678 19.2594 31.5694L11.0167 26.9329C11.0167 26.9329 10.6617 26.7313 10.4569 26.3817C10.4569 26.3817 10.2522 26.0321 10.25 25.627L10.25 16.3792C10.25 16.3792 10.2522 15.97 10.4569 15.6205C10.4569 15.6205 10.6617 15.2709 11.014 15.0708L19.2667 10.4287C19.2667 10.4287 19.6031 10.2344 20 10.2344C20 10.2344 20.3969 10.2344 20.7406 10.4328L28.9833 15.0693C28.9833 15.0693 29.3383 15.2709 29.543 15.6205C29.543 15.6205 29.7478 15.97 29.75 16.3752L29.75 25.623L29.75 25.627ZM28.25 16.3832L28.25 25.6189C28.25 25.6189 28.2499 25.6216 28.2487 25.6236C28.2487 25.6236 28.2483 25.6244 28.2475 25.6252C28.2469 25.6258 28.2462 25.6265 28.2453 25.627L20 30.265L11.7522 25.6256C11.7522 25.6256 11.7523 25.6254 11.7513 25.6236C11.7513 25.6236 11.75 25.6215 11.75 25.6189L11.75 16.3792C11.75 16.3792 11.7505 16.3799 11.7513 16.3786C11.7513 16.3786 11.7525 16.3764 11.7547 16.3751L20 11.7372L28.2478 16.3766C28.2479 16.3769 28.2483 16.3778 28.2487 16.3786C28.2487 16.3786 28.25 16.3807 28.25 16.3832Z" fill="#585865"/>
<path d="M15.8622 12.7506C15.7513 12.6894 15.6267 12.6573 15.5 12.6573L15.4904 12.6574C15.4231 12.6582 15.3563 12.6681 15.2917 12.6868C15.1007 12.742 14.9393 12.8709 14.8433 13.0451C14.7821 13.156 14.75 13.2806 14.75 13.4073L14.7501 13.4169C14.7509 13.4842 14.7608 13.551 14.7795 13.6156C14.8347 13.8067 14.9636 13.968 15.1378 14.0641L23.8438 18.8658V23.2979C23.8438 23.7122 24.1795 24.0479 24.5938 24.0479C25.008 24.0479 25.3438 23.7122 25.3438 23.2979V18.4229C25.3438 18.1497 25.1952 17.8982 24.956 17.7662L15.8622 12.7506Z" fill="#585865"/>
<path d="M20.0808 20.1404L11.4682 15.3397C11.3566 15.2774 11.2309 15.2448 11.1031 15.2448L11.0968 15.2448C11.0296 15.2454 10.9627 15.255 10.8981 15.2733C10.7067 15.3277 10.5448 15.4559 10.448 15.6296C10.3858 15.7413 10.3531 15.867 10.3531 15.9948L10.3531 16.001C10.3537 16.0683 10.3633 16.1351 10.3817 16.1998C10.436 16.3911 10.5642 16.553 10.7379 16.6499L19.7192 21.6561C19.9481 21.7837 20.2269 21.7826 20.4548 21.6532L29.2673 16.6469C29.4403 16.5486 29.5671 16.3857 29.6199 16.1939C29.6378 16.1291 29.6468 16.0621 29.6468 15.9948L29.6466 15.9764C29.6436 15.8528 29.61 15.7318 29.549 15.6243C29.4157 15.3897 29.1667 15.2448 28.8968 15.2448C28.887 15.2448 28.8771 15.245 28.8673 15.2454C28.7475 15.2501 28.6306 15.2835 28.5264 15.3427L20.0808 20.1404Z" fill="#585865"/>
<path d="M19.25 31.0072L19.25 31.0136C19.25 31.0572 19.2538 31.1008 19.2614 31.1438C19.3242 31.4999 19.6321 31.7605 19.9937 31.7635C20.0057 31.7636 20.0177 31.7635 20.0297 31.763C20.216 31.7556 20.3929 31.6791 20.5258 31.5483C20.6677 31.4089 20.7483 31.2188 20.75 31.0199L20.8343 21.0075L20.8344 21.0011C20.8344 20.9912 20.8342 20.9813 20.8338 20.9714C20.8264 20.785 20.7499 20.6082 20.6192 20.4752C20.4797 20.3334 20.2896 20.2528 20.0907 20.2511L20.0844 20.2511C20.0745 20.2511 20.0646 20.2513 20.0547 20.2517C19.8684 20.259 19.6915 20.3356 19.5585 20.4663C19.4167 20.6058 19.3361 20.7958 19.3344 20.9947L19.25 31.0072Z" fill="#585865"/>
</svg>
