<svg width="24" height="24" viewBox="0 0 24 24" fill="none" xmlns="http://www.w3.org/2000/svg">
<path fill-rule="evenodd" clip-rule="evenodd" d="M14.25 1.5C14.25 1.5 15.4926 1.5 16.3713 2.37868C16.3713 2.37868 17.25 3.25736 17.25 4.5C17.25 4.5 17.25 5.74264 16.3713 6.62132C16.3713 6.62132 15.4926 7.5 14.25 7.5C14.25 7.5 13.0074 7.5 12.1287 6.62132C12.1287 6.62132 11.25 5.74264 11.25 4.5C11.25 4.5 11.25 3.25736 12.1287 2.37868C12.1287 2.37868 13.0074 1.5 14.25 1.5ZM14.25 3C14.25 3 13.6287 3 13.1893 3.43934C13.1893 3.43934 12.75 3.87868 12.75 4.5C12.75 4.5 12.75 5.12132 13.1893 5.56066C13.1893 5.56066 13.6287 6 14.25 6C14.25 6 14.8713 6 15.3107 5.56066C15.3107 5.56066 15.75 5.12132 15.75 4.5C15.75 4.5 15.75 3.87868 15.3107 3.43934C15.3107 3.43934 14.8713 3 14.25 3Z" fill="#585865"/>
<path d="M15.5913 13.1832C17.2938 14.25 19.5 14.25 19.5 14.25C19.9142 14.25 20.25 13.9142 20.25 13.5C20.25 13.0858 19.9142 12.75 19.5 12.75C17.7249 12.75 16.3878 11.9122 16.3878 11.9122C15.5703 11.3999 14.2883 10.0245 14.2883 10.0245C13.616 9.30321 13.2583 8.97356 13.2583 8.97356C11.9763 7.78772 10.1122 7.99565 10.1122 7.99565C8.73896 8.14882 7.12751 9.07093 7.12751 9.07093C6.01585 9.70704 4.8873 10.6467 4.8873 10.6467C4.32287 11.1166 3.97079 11.4686 3.97079 11.4686C3.95331 11.486 3.93671 11.5042 3.92103 11.5233C3.81046 11.6575 3.75 11.8261 3.75 12C3.75 12.012 3.75029 12.024 3.75087 12.036C3.75982 12.2223 3.83783 12.3985 3.96967 12.5303C4.11032 12.671 4.30109 12.75 4.5 12.75C4.69891 12.75 4.88968 12.671 5.03033 12.5303C5.33429 12.2264 5.84708 11.7994 5.84708 11.7994C6.87477 10.9438 7.87249 10.3728 7.87249 10.3728C10.7698 8.71496 12.2417 10.0765 12.2417 10.0765C12.5575 10.3676 13.191 11.0473 13.191 11.0473C14.6071 12.5666 15.5913 13.1832 15.5913 13.1832Z" fill="#585865"/>
<path d="M11.5465 8.83234L6.06216 21.4511C6.02116 21.5454 6 21.6472 6 21.75L6.00002 21.7557C6.00072 21.8479 6.01842 21.9392 6.05223 22.025C6.12516 22.2101 6.26862 22.3586 6.45105 22.4379C6.54538 22.4789 6.64714 22.5 6.75 22.5C6.7668 22.5 6.7836 22.4995 6.80037 22.4983C7.08016 22.4795 7.32607 22.3062 7.43784 22.049L12.922 9.43084C12.963 9.33651 12.9844 9.23415 12.9844 9.13129C12.9844 9.11448 12.9838 9.09768 12.9827 9.08092C12.9638 8.80113 12.7905 8.55522 12.5333 8.44344C12.439 8.40244 12.3372 8.38129 12.2344 8.38129L12.2287 8.38131C12.1365 8.38201 12.0452 8.39971 11.9594 8.43352C11.7743 8.50645 11.6258 8.64991 11.5465 8.83234Z" fill="#585865"/>
<path d="M14.6854 15.8893L10.701 13.0487C10.5739 12.9581 10.4217 12.9094 10.2656 12.9094C10.25 12.9094 10.2343 12.9099 10.2187 12.9109C9.99322 12.925 9.7861 13.04 9.65494 13.224C9.56432 13.3511 9.51562 13.5033 9.51562 13.6594C9.51562 13.675 9.51611 13.6907 9.51709 13.7063C9.53122 13.9318 9.64626 14.1389 9.83024 14.2701L13.5 16.8864V21.75C13.5 22.1642 13.8358 22.5 14.25 22.5C14.6642 22.5 15 22.1642 15 21.75V16.5C15 16.2576 14.8828 16.0301 14.6854 15.8893Z" fill="#585865"/>
</svg>
