<svg width="24" height="24" viewBox="0 0 24 24" fill="none" xmlns="http://www.w3.org/2000/svg">
<path fill-rule="evenodd" clip-rule="evenodd" d="M10.9111 9.00033L9.3484 11.377C9.3484 11.377 10.4263 13.6005 12.6491 14.6698L12.6521 14.6678L14.9915 13.1051C14.9915 13.1051 15.3092 12.8896 15.6915 12.8544C15.6915 12.8544 16.0738 12.8192 16.421 12.971L20.8007 14.8521C20.8007 14.8521 21.266 15.0458 21.5183 15.4821C21.5183 15.4821 21.7706 15.9184 21.7064 16.418C21.7064 16.418 21.4547 18.3828 19.9678 19.6916C19.9678 19.6916 18.481 21.0004 16.5 21.0008C16.5 21.0008 13.8147 21.0008 11.3338 19.9732C11.3338 19.9732 8.85286 18.9455 6.95406 17.0467C6.95406 17.0467 5.05525 15.1479 4.02763 12.667C4.02763 12.667 3 10.1861 3 7.50063C3 7.50063 3.00045 5.51981 4.30925 4.03296C4.30925 4.03296 5.61805 2.54611 7.58257 2.29441C7.58257 2.29441 8.08245 2.2302 8.51873 2.48251C8.51873 2.48251 8.95501 2.73482 9.14561 3.19286L11.0285 7.5864C11.0285 7.5864 11.1778 7.93007 11.1479 8.30357C11.1479 8.30357 11.1181 8.67707 10.9111 9.00033ZM7.99536 12.0246L7.99416 12.0221C7.99416 12.0221 7.82652 11.6702 7.85147 11.2811C7.85147 11.2811 7.8765 10.8906 8.08911 10.5621L9.65268 8.18389L7.76689 3.78374C7.76689 3.78374 6.36768 3.9647 5.43518 5.02406C5.43518 5.02406 4.50032 6.0861 4.5 7.50097C4.5 7.50097 4.5 9.88775 5.41345 12.093C5.41345 12.093 6.32689 14.2983 8.01472 15.9861C8.01472 15.9861 9.70255 17.6739 11.9078 18.5874C11.9078 18.5874 14.1131 19.5008 16.5 19.5008C16.5 19.5008 17.9147 19.5005 18.9767 18.5656C18.9767 18.5656 20.0362 17.633 20.2177 16.2341L15.8292 14.3494L13.4853 15.9151C13.4853 15.9151 13.159 16.1354 12.7627 16.1655C12.7627 16.1655 12.3664 16.1956 12.0072 16.0255C12.0072 16.0255 9.30279 14.7245 7.99685 12.0277L7.99629 12.0265L7.99595 12.0258L7.99536 12.0246Z" fill="#1C1C1C"/>
</svg>
