<svg width="24" height="25" viewBox="0 0 24 25" fill="none" xmlns="http://www.w3.org/2000/svg">
<g id="ShoppingCart-r">
<g id="Vector">
<path d="M3.19687 2H1.5C1.08579 2 0.75 2.33579 0.75 2.75C0.75 3.16421 1.08579 3.5 1.5 3.5H3.1897L5.80586 17.8842C5.87071 18.2408 6.1813 18.5 6.54375 18.5H17.25C17.6642 18.5 18 18.1642 18 17.75C18 17.3358 17.6642 17 17.25 17H7.16965L4.66656 3.23753C4.57185 2.70455 4.15861 2.35489 4.15861 2.35489C3.74536 2.00522 3.19687 2 3.19687 2Z" fill="#585865"/>
<path fill-rule="evenodd" clip-rule="evenodd" d="M7.5 17C7.5 17 8.58731 17 9.35616 17.7688C9.35616 17.7688 10.125 18.5377 10.125 19.625C10.125 19.625 10.125 20.7123 9.35616 21.4812C9.35616 21.4812 8.58731 22.25 7.5 22.25C7.5 22.25 6.41269 22.25 5.64384 21.4812C5.64384 21.4812 4.875 20.7123 4.875 19.625C4.875 19.625 4.875 18.5377 5.64384 17.7688C5.64384 17.7688 6.41269 17 7.5 17ZM7.5 18.5C7.5 18.5 7.03401 18.5 6.7045 18.8295C6.7045 18.8295 6.375 19.159 6.375 19.625C6.375 19.625 6.375 20.091 6.7045 20.4205C6.7045 20.4205 7.03401 20.75 7.5 20.75C7.5 20.75 7.96599 20.75 8.29549 20.4205C8.29549 20.4205 8.625 20.091 8.625 19.625C8.625 19.625 8.625 19.159 8.29549 18.8295C8.29549 18.8295 7.96599 18.5 7.5 18.5Z" fill="#585865"/>
<path fill-rule="evenodd" clip-rule="evenodd" d="M17.25 17C17.25 17 18.3373 17 19.1062 17.7688C19.1062 17.7688 19.875 18.5377 19.875 19.625C19.875 19.625 19.875 20.7123 19.1062 21.4812C19.1062 21.4812 18.3373 22.25 17.25 22.25C17.25 22.25 16.1627 22.25 15.3938 21.4812C15.3938 21.4812 14.625 20.7123 14.625 19.625C14.625 19.625 14.625 18.5377 15.3938 17.7688C15.3938 17.7688 16.1627 17 17.25 17ZM17.25 18.5C17.25 18.5 16.784 18.5 16.4545 18.8295C16.4545 18.8295 16.125 19.159 16.125 19.625C16.125 19.625 16.125 20.091 16.4545 20.4205C16.4545 20.4205 16.784 20.75 17.25 20.75C17.25 20.75 17.716 20.75 18.0455 20.4205C18.0455 20.4205 18.375 20.091 18.375 19.625C18.375 19.625 18.375 19.159 18.0455 18.8295C18.0455 18.8295 17.716 18.5 17.25 18.5Z" fill="#585865"/>
<path d="M20.25 5.75H4.5C4.08579 5.75 3.75 6.08579 3.75 6.5C3.75 6.91421 4.08579 7.25 4.5 7.25H19.3509L18.3684 12.6373C18.3205 12.9053 18.1134 13.078 18.1134 13.078C17.9063 13.2508 17.6367 13.25 17.6367 13.25L5.85938 13.25C5.44516 13.25 5.10938 13.5858 5.10938 14C5.10938 14.4142 5.44516 14.75 5.85938 14.75L17.6321 14.75C18.448 14.7525 19.0744 14.2298 19.0744 14.2298C19.7009 13.7071 19.8441 12.9064 19.8441 12.9064L20.9878 6.63455C20.9959 6.59016 21 6.54513 21 6.5C21 6.08579 20.6642 5.75 20.25 5.75Z" fill="#585865"/>
</g>
</g>
</svg>
