<svg width="20" height="21" viewBox="0 0 20 21" fill="none" xmlns="http://www.w3.org/2000/svg">
<path fill-rule="evenodd" clip-rule="evenodd" d="M10.0003 1.54297C9.83454 1.54297 9.67557 1.60882 9.55836 1.72603C9.44115 1.84324 9.3753 2.00221 9.3753 2.16797V11.3121L7.9753 9.67797C7.9219 9.61559 7.85673 9.56434 7.78352 9.52715C7.71031 9.48996 7.63049 9.46755 7.54862 9.4612C7.46675 9.45486 7.38443 9.4647 7.30637 9.49017C7.2283 9.51564 7.15601 9.55623 7.09364 9.60964C7.03126 9.66304 6.98001 9.72821 6.94282 9.80142C6.90562 9.87463 6.88322 9.95445 6.87687 10.0363C6.87052 10.1182 6.88037 10.2005 6.90584 10.2786C6.9313 10.3566 6.9719 10.4289 7.0253 10.4913L9.5253 13.408C9.58398 13.4766 9.65682 13.5317 9.73882 13.5694C9.82082 13.6072 9.91002 13.6268 10.0003 13.6268C10.0906 13.6268 10.1798 13.6072 10.2618 13.5694C10.3438 13.5317 10.4166 13.4766 10.4753 13.408L12.9753 10.4913C13.0287 10.4289 13.0693 10.3566 13.0948 10.2786C13.1202 10.2005 13.1301 10.1182 13.1237 10.0363C13.1174 9.95445 13.095 9.87463 13.0578 9.80142C13.0206 9.72821 12.9693 9.66304 12.907 9.60964C12.8446 9.55623 12.7723 9.51564 12.6942 9.49017C12.6162 9.4647 12.5339 9.45486 12.452 9.4612C12.3701 9.46755 12.2903 9.48996 12.2171 9.52715C12.1439 9.56434 12.0787 9.61559 12.0253 9.67797L10.6253 11.3113V2.16797C10.6253 2.00221 10.5595 1.84324 10.4422 1.72603C10.325 1.60882 10.1661 1.54297 10.0003 1.54297Z" fill="white"/>
<path d="M11.8763 8V8.315C12.2658 8.17656 12.6901 8.17077 13.0832 8.29851C13.4763 8.42626 13.8162 8.68038 14.0499 9.02132C14.2836 9.36226 14.398 9.7709 14.3753 10.1836C14.3527 10.5963 14.1942 10.99 13.9246 11.3033L11.4246 14.22C11.2486 14.4253 11.0303 14.59 10.7846 14.703C10.5389 14.816 10.2717 14.8744 10.0013 14.8744C9.7309 14.8744 9.46369 14.816 9.21801 14.703C8.97233 14.59 8.75399 14.4253 8.57797 14.22L6.07797 11.3033C5.80912 10.9898 5.6513 10.5963 5.62902 10.1839C5.60673 9.77155 5.72122 9.36333 5.95472 9.02268C6.18822 8.68203 6.52766 8.428 6.92033 8.30003C7.31299 8.17207 7.73693 8.17733 8.1263 8.315V8H6.66797C4.3113 8 3.13214 8 2.40047 8.7325C1.66797 9.46417 1.66797 10.6433 1.66797 13V13.8333C1.66797 16.19 1.66797 17.3692 2.40047 18.1008C3.13214 18.8333 4.3113 18.8333 6.66797 18.8333H13.3346C15.6913 18.8333 16.8705 18.8333 17.6021 18.1008C18.3346 17.3692 18.3346 16.19 18.3346 13.8333V13C18.3346 10.6433 18.3346 9.46417 17.6021 8.7325C16.8705 8 15.6913 8 13.3346 8H11.8763Z" fill="white"/>
</svg>
