<svg width="24" height="24" viewBox="0 0 24 24" fill="none" xmlns="http://www.w3.org/2000/svg">
<path d="M20.4922 8.25L21.8036 11.5286C21.8775 11.7132 22.0217 11.861 22.2046 11.9394C22.2979 11.9794 22.3984 12 22.5 12L22.5095 12C22.6017 11.9988 22.6929 11.9806 22.7785 11.9464C23.0633 11.8325 23.25 11.5567 23.25 11.25L23.25 11.2474C23.2497 11.1528 23.2315 11.0592 23.1964 10.9715L21.8839 7.69023C21.7157 7.264 21.3331 7.00551 21.3331 7.00551C20.9506 6.74703 20.4889 6.75003 20.4889 6.75003L16.5 6.75002C16.0858 6.75002 15.75 7.08581 15.75 7.50002C15.75 7.91423 16.0858 8.25002 16.5 8.25002L20.4922 8.25Z" fill="#585865"/>
<path d="M1.5 14.25H16.5C16.9142 14.25 17.25 13.9142 17.25 13.5C17.25 13.0858 16.9142 12.75 16.5 12.75H1.5C1.08579 12.75 0.75 13.0858 0.75 13.5C0.75 13.9142 1.08579 14.25 1.5 14.25Z" fill="#585865"/>
<path fill-rule="evenodd" clip-rule="evenodd" d="M17.625 15C17.625 15 18.8676 15 19.7463 15.8787C19.7463 15.8787 20.625 16.7574 20.625 18C20.625 18 20.625 19.2426 19.7463 20.1213C19.7463 20.1213 18.8676 21 17.625 21C17.625 21 16.3824 21 15.5037 20.1213C15.5037 20.1213 14.625 19.2426 14.625 18C14.625 18 14.625 16.7574 15.5037 15.8787C15.5037 15.8787 16.3824 15 17.625 15ZM17.625 16.5C17.625 16.5 17.0037 16.5 16.5643 16.9393C16.5643 16.9393 16.125 17.3787 16.125 18C16.125 18 16.125 18.6213 16.5643 19.0607C16.5643 19.0607 17.0037 19.5 17.625 19.5C17.625 19.5 18.2463 19.5 18.6857 19.0607C18.6857 19.0607 19.125 18.6213 19.125 18C19.125 18 19.125 17.3787 18.6857 16.9393C18.6857 16.9393 18.2463 16.5 17.625 16.5Z" fill="#585865"/>
<path fill-rule="evenodd" clip-rule="evenodd" d="M6.375 15C6.375 15 7.61764 15 8.49632 15.8787C8.49632 15.8787 9.375 16.7574 9.375 18C9.375 18 9.375 19.2426 8.49632 20.1213C8.49632 20.1213 7.61764 21 6.375 21C6.375 21 5.13236 21 4.25368 20.1213C4.25368 20.1213 3.375 19.2426 3.375 18C3.375 18 3.375 16.7574 4.25368 15.8787C4.25368 15.8787 5.13236 15 6.375 15ZM6.375 16.5C6.375 16.5 5.75368 16.5 5.31434 16.9393C5.31434 16.9393 4.875 17.3787 4.875 18C4.875 18 4.875 18.6213 5.31434 19.0607C5.31434 19.0607 5.75368 19.5 6.375 19.5C6.375 19.5 6.99632 19.5 7.43566 19.0607C7.43566 19.0607 7.875 18.6213 7.875 18C7.875 18 7.875 17.3787 7.43566 16.9393C7.43566 16.9393 6.99632 16.5 6.375 16.5Z" fill="#585865"/>
<path d="M15.375 17.25H8.625C8.21079 17.25 7.875 17.5858 7.875 18C7.875 18.4142 8.21079 18.75 8.625 18.75H15.375C15.7892 18.75 16.125 18.4142 16.125 18C16.125 17.5858 15.7892 17.25 15.375 17.25Z" fill="#585865"/>
<path d="M15.75 6.75V16.05C15.75 16.4642 16.0858 16.8 16.5 16.8C16.9142 16.8 17.25 16.4642 17.25 16.05V6C17.25 5.58579 16.9142 5.25 16.5 5.25H2.25C1.62868 5.25 1.18934 5.68934 1.18934 5.68934C0.75 6.12868 0.75 6.75 0.75 6.75V17.25C0.75 17.8713 1.18934 18.3107 1.18934 18.3107C1.62868 18.75 2.25 18.75 2.25 18.75H4.125C4.53921 18.75 4.875 18.4142 4.875 18C4.875 17.5858 4.53921 17.25 4.125 17.25H2.25V6.75H15.75Z" fill="#585865"/>
<path d="M21.75 17.25H19.875C19.4608 17.25 19.125 17.5858 19.125 18C19.125 18.4142 19.4608 18.75 19.875 18.75H21.75C22.3713 18.75 22.8107 18.3107 22.8107 18.3107C23.25 17.8713 23.25 17.25 23.25 17.25V11.25C23.25 10.8358 22.9142 10.5 22.5 10.5H16.5C16.0858 10.5 15.75 10.8358 15.75 11.25C15.75 11.6642 16.0858 12 16.5 12H21.75V17.25Z" fill="#585865"/>
</svg>
