<svg width="27" height="26" viewBox="0 0 27 26" fill="none" xmlns="http://www.w3.org/2000/svg">
<path fill-rule="evenodd" clip-rule="evenodd" d="M13.5 0C13.5 0 16.1442 0 18.5605 1.02201C18.5605 1.02201 20.8936 2.00884 22.6924 3.80761C22.6924 3.80761 24.4912 5.60638 25.478 7.93951C25.478 7.93951 26.5 10.3558 26.5 13C26.5 13 26.5 15.6442 25.478 18.0605C25.478 18.0605 24.4912 20.3936 22.6924 22.1924C22.6924 22.1924 20.8936 23.9912 18.5605 24.978C18.5605 24.978 16.1442 26 13.5 26C13.5 26 10.8558 26 8.43951 24.978C8.43951 24.978 6.10638 23.9912 4.30761 22.1924C4.30761 22.1924 2.50884 20.3936 1.52202 18.0605C1.52202 18.0605 0.5 15.6442 0.5 13C0.5 13 0.5 10.3558 1.52202 7.93951C1.52202 7.93951 2.50885 5.60638 4.30761 3.80761C4.30761 3.80761 6.10638 2.00884 8.43951 1.02201C8.43951 1.02201 10.8558 0 13.5 0ZM13.5 2C13.5 2 11.2614 2 9.21861 2.86402C9.21861 2.86402 7.24476 3.69889 5.72183 5.22182C5.72183 5.22182 4.1989 6.74476 3.36402 8.71861C3.36402 8.71861 2.5 10.7614 2.5 13C2.5 13 2.5 15.2386 3.36402 17.2814C3.36402 17.2814 4.19889 19.2552 5.72183 20.7782C5.72183 20.7782 7.24476 22.3011 9.21861 23.136C9.21861 23.136 11.2614 24 13.5 24C13.5 24 15.7386 24 17.7814 23.136C17.7814 23.136 19.7552 22.3011 21.2782 20.7782C21.2782 20.7782 22.8011 19.2552 23.636 17.2814C23.636 17.2814 24.5 15.2386 24.5 13C24.5 13 24.5 10.7614 23.636 8.71861C23.636 8.71861 22.8011 6.74476 21.2782 5.22183C21.2782 5.22183 19.7552 3.69889 17.7814 2.86402C17.7814 2.86402 15.7386 2 13.5 2Z" fill="#585865"/>
<path d="M15.5052 13L11.3316 16.7562C11.1345 16.9336 11.0153 17.1826 11.0014 17.4474C11.0005 17.4649 11 17.4825 11 17.5C11 17.5146 11.0003 17.5293 11.001 17.5439C11.0112 17.7756 11.1016 17.9966 11.2567 18.169C11.4463 18.3797 11.7165 18.5 12 18.5C12.017 18.5 12.0339 18.4996 12.0509 18.4987C12.2801 18.487 12.4983 18.3968 12.669 18.2433L17.669 13.7433C18.0795 13.3738 18.1128 12.7415 17.7433 12.331C17.7198 12.305 17.695 12.2802 17.669 12.2567L12.6691 7.75679C12.4853 7.59144 12.247 7.5 12 7.5C11.9825 7.5 11.9649 7.50046 11.9474 7.50138C11.6826 7.51532 11.4341 7.6339 11.2567 7.83104C11.0914 8.01466 11 8.25296 11 8.5C11 8.51753 11.0005 8.53505 11.0014 8.55256C11.0153 8.81741 11.1339 9.06587 11.331 9.24329L15.5052 13Z" fill="#585865"/>
</svg>
