<svg width="32" height="33" viewBox="0 0 32 33" fill="none" xmlns="http://www.w3.org/2000/svg">
<path d="M27 9.5H7C6.73478 9.5 6.48043 9.39464 6.29289 9.20711C6.10536 9.01957 6 8.76522 6 8.5C6 8.23478 6.10536 7.98043 6.29289 7.79289C6.48043 7.60536 6.73478 7.5 7 7.5H24C24.2652 7.5 24.5196 7.39464 24.7071 7.20711C24.8946 7.01957 25 6.76522 25 6.5C25 6.23478 24.8946 5.98043 24.7071 5.79289C24.5196 5.60536 24.2652 5.5 24 5.5H7C6.20536 5.50329 5.44421 5.82042 4.88232 6.38232C4.32042 6.94421 4.00329 7.70536 4 8.5V24.5C4.00329 25.2946 4.32042 26.0558 4.88232 26.6177C5.44421 27.1796 6.20536 27.4967 7 27.5H27C27.5304 27.5 28.0391 27.2893 28.4142 26.9142C28.7893 26.5391 29 26.0304 29 25.5V11.5C29 10.9696 28.7893 10.4609 28.4142 10.0858C28.0391 9.71071 27.5304 9.5 27 9.5ZM22.5 20C22.2033 20 21.9133 19.912 21.6666 19.7472C21.42 19.5824 21.2277 19.3481 21.1142 19.074C21.0007 18.7999 20.9709 18.4983 21.0288 18.2074C21.0867 17.9164 21.2296 17.6491 21.4393 17.4393C21.6491 17.2296 21.9164 17.0867 22.2074 17.0288C22.4983 16.9709 22.7999 17.0007 23.074 17.1142C23.3481 17.2277 23.5824 17.42 23.7472 17.6666C23.912 17.9133 24 18.2033 24 18.5C24 18.8978 23.842 19.2794 23.5607 19.5607C23.2794 19.842 22.8978 20 22.5 20Z" fill="#552F02"/>
</svg>
