<svg width="40" height="40" viewBox="0 0 40 40" fill="none" xmlns="http://www.w3.org/2000/svg">
<rect width="40" height="40" rx="20" fill="#F8FFF8"/>
<path d="M24.4675 19.8431L24.4678 19.8428C24.6085 19.7022 24.6875 19.5114 24.6875 19.3125C24.6875 19.1136 24.6085 18.9228 24.4678 18.7822C24.3272 18.6415 24.1364 18.5625 23.9375 18.5625C23.7386 18.5625 23.5478 18.6415 23.4072 18.7822L23.4069 18.7825L20 22.1893L16.5929 18.7823C16.4522 18.6415 16.2614 18.5625 16.0625 18.5625C15.8636 18.5625 15.6728 18.6415 15.5322 18.7822C15.3915 18.9228 15.3125 19.1136 15.3125 19.3125C15.3125 19.5114 15.3915 19.7022 15.5322 19.8428L19.4697 23.7803C19.6103 23.921 19.8011 24 20 24C20.1989 24 20.3897 23.921 20.5303 23.7803L24.4675 19.8431Z" fill="#585865"/>
<path d="M19.25 12.75V23.25C19.25 23.6642 19.5858 24 20 24C20.4142 24 20.75 23.6642 20.75 23.25V12.75C20.75 12.3358 20.4142 12 20 12C19.5858 12 19.25 12.3358 19.25 12.75Z" fill="#585865"/>
<path d="M12.5 28.5V23.25C12.5 22.8358 12.1642 22.5 11.75 22.5C11.3358 22.5 11 22.8358 11 23.25V28.5C11 29.1213 11.4393 29.5607 11.4393 29.5607C11.8787 30 12.5 30 12.5 30H27.5C28.1213 30 28.5607 29.5607 28.5607 29.5607C29 29.1213 29 28.5 29 28.5V23.25C29 22.8358 28.6642 22.5 28.25 22.5C27.8358 22.5 27.5 22.8358 27.5 23.25V28.5H12.5Z" fill="#585865"/>
</svg>
